<svg width="3043" height="1623" viewBox="0 0 3043 1623" fill="none" xmlns="http://www.w3.org/2000/svg">
<g opacity="0.7" filter="url(#filter0_f_123_222)">
<rect x="764.625" y="229" width="1517.2" height="477.154" rx="64" fill="#020817"/>
<rect x="767.125" y="231.5" width="1512.2" height="472.154" rx="61.5" stroke="#E2E8F0" stroke-opacity="0.88" stroke-width="5"/>
<rect x="836.656" y="570.008" width="306.949" height="90.7387" rx="45.3693" fill="#454F61" stroke="#1E293B" stroke-width="5"/>
<rect x="1187.11" y="570.008" width="523.16" height="90.7387" rx="45.3693" fill="#454F61" stroke="#1E293B" stroke-width="5"/>
<rect x="839.039" y="386.648" width="1190.54" height="67.2619" rx="33.6309" fill="#454F61"/>
<rect x="586.555" y="288.164" width="1873.47" height="589.199" rx="64" fill="#020817"/>
<rect x="589.055" y="290.664" width="1868.47" height="584.199" rx="61.5" stroke="#E2E8F0" stroke-opacity="0.91" stroke-width="5"/>
<rect x="676.211" y="708.602" width="377.852" height="110.872" rx="55.4358" fill="#454F61" stroke="#1E293B" stroke-width="5"/>
<rect x="1108.79" y="708.602" width="644.833" height="110.872" rx="55.4358" fill="#454F61" stroke="#1E293B" stroke-width="5"/>
<rect x="678.445" y="481.602" width="1470.09" height="83.0562" rx="41.5281" fill="#454F61"/>
<rect x="451.391" y="356.555" width="2143.74" height="674.198" rx="64" fill="#020817"/>
<rect x="453.891" y="359.055" width="2138.74" height="669.198" rx="61.5" stroke="#E2E8F0" stroke-opacity="0.94" stroke-width="5"/>
<rect x="554.297" y="810.992" width="431.641" height="126.145" rx="63.0724" fill="#454F61" stroke="#1E293B" stroke-width="5"/>
<rect x="1049.31" y="810.992" width="737.137" height="126.145" rx="63.0724" fill="#454F61" stroke="#1E293B" stroke-width="5"/>
<rect x="556.562" y="550.883" width="1682.17" height="95.0381" rx="47.519" fill="#454F61"/>
<rect x="303.969" y="439.602" width="2432.44" height="764.992" rx="64" fill="#020817"/>
<rect x="306.469" y="442.102" width="2427.44" height="759.992" rx="61.5" stroke="#E2E8F0" stroke-opacity="0.97" stroke-width="5"/>
<rect x="421.055" y="924.008" width="489.097" height="142.46" rx="66.5" fill="#454F61" stroke="#1E293B" stroke-width="5"/>
<rect x="982.82" y="924.008" width="835.734" height="142.46" rx="66.5" fill="#454F61" stroke="#1E293B" stroke-width="5"/>
<rect x="423.242" y="628.508" width="1908.71" height="107.837" rx="53.9184" fill="#454F61"/>
<rect x="131.258" y="533.312" width="2781.01" height="871.188" rx="61.5" fill="#020817" stroke="#E2E8F0" stroke-width="5"/>
<rect x="263.195" y="1055.37" width="559.463" height="162.44" rx="81.22" fill="#454F61" stroke="#1E293B" stroke-width="5"/>
<rect x="906.656" y="1055.37" width="956.486" height="162.44" rx="81.22" fill="#454F61" stroke="#1E293B" stroke-width="5"/>
<rect x="265.383" y="716.617" width="2186.16" height="123.512" rx="8" fill="#454F61"/>
</g>
<g filter="url(#filter1_dddd_123_222)">
<circle cx="1519.5" cy="811.5" r="278.5" fill="#BC2626"/>
<path d="M1519.5 958.297C1498.67 958.297 1480.83 954.911 1465.98 948.141C1451.27 941.24 1440.01 931.604 1432.2 919.234C1424.38 906.865 1420.48 892.411 1420.48 875.875V875.484C1420.48 862.724 1422.89 851.591 1427.7 842.086C1432.52 832.451 1439.03 824.703 1447.23 818.844C1455.57 812.854 1464.81 808.948 1474.97 807.125V805.562C1461.56 802.307 1450.23 795.276 1440.98 784.469C1431.87 773.531 1427.31 759.99 1427.31 743.844V743.453C1427.31 728.219 1431.02 714.938 1438.45 703.609C1446 692.281 1456.67 683.492 1470.48 677.242C1484.28 670.992 1500.62 667.867 1519.5 667.867C1538.38 667.867 1554.72 670.992 1568.52 677.242C1582.33 683.492 1592.94 692.281 1600.36 703.609C1607.91 714.938 1611.69 728.219 1611.69 743.453V743.844C1611.69 759.99 1607.07 773.531 1597.82 784.469C1588.71 795.276 1577.44 802.307 1564.03 805.562V807.125C1574.19 808.948 1583.37 812.854 1591.57 818.844C1599.9 824.703 1606.48 832.451 1611.3 842.086C1616.11 851.591 1618.52 862.724 1618.52 875.484V875.875C1618.52 892.411 1614.62 906.865 1606.8 919.234C1598.99 931.604 1587.66 941.24 1572.82 948.141C1558.11 954.911 1540.33 958.297 1519.5 958.297ZM1519.5 906.148C1524.06 906.148 1527.9 904.846 1531.02 902.242C1534.28 899.638 1536.69 895.797 1538.25 890.719C1539.94 885.641 1540.79 879.326 1540.79 871.773V871.383C1540.79 863.701 1539.94 857.32 1538.25 852.242C1536.69 847.034 1534.28 843.128 1531.02 840.523C1527.9 837.789 1524.06 836.422 1519.5 836.422C1514.94 836.422 1511.04 837.789 1507.78 840.523C1504.66 843.128 1502.25 847.034 1500.55 852.242C1498.99 857.32 1498.21 863.701 1498.21 871.383V871.773C1498.21 879.326 1498.99 885.641 1500.55 890.719C1502.25 895.797 1504.66 899.638 1507.78 902.242C1511.04 904.846 1514.94 906.148 1519.5 906.148ZM1519.5 784.859C1523.54 784.859 1526.99 783.622 1529.85 781.148C1532.72 778.674 1534.86 775.094 1536.3 770.406C1537.86 765.589 1538.64 759.599 1538.64 752.438V752.047C1538.64 745.016 1537.86 739.091 1536.3 734.273C1534.86 729.456 1532.72 725.875 1529.85 723.531C1526.99 721.057 1523.54 719.82 1519.5 719.82C1515.46 719.82 1512.01 721.057 1509.15 723.531C1506.28 725.875 1504.07 729.456 1502.51 734.273C1501.08 739.091 1500.36 745.016 1500.36 752.047V752.438C1500.36 759.599 1501.08 765.589 1502.51 770.406C1504.07 775.094 1506.28 778.674 1509.15 781.148C1512.01 783.622 1515.46 784.859 1519.5 784.859Z" fill="#F4F4F4"/>
</g>
<defs>
<filter id="filter0_f_123_222" x="113.758" y="214" width="2816.01" height="1208" filterUnits="userSpaceOnUse" color-interpolation-filters="sRGB">
<feFlood flood-opacity="0" result="BackgroundImageFix"/>
<feBlend mode="normal" in="SourceGraphic" in2="BackgroundImageFix" result="shape"/>
<feGaussianBlur stdDeviation="7.5" result="effect1_foregroundBlur_123_222"/>
</filter>
<filter id="filter1_dddd_123_222" x="1194" y="524" width="651" height="730" filterUnits="userSpaceOnUse" color-interpolation-filters="sRGB">
<feFlood flood-opacity="0" result="BackgroundImageFix"/>
<feColorMatrix in="SourceAlpha" type="matrix" values="0 0 0 0 0 0 0 0 0 0 0 0 0 0 0 0 0 0 127 0" result="hardAlpha"/>
<feOffset dy="7"/>
<feGaussianBlur stdDeviation="8"/>
<feColorMatrix type="matrix" values="0 0 0 0 0 0 0 0 0 0 0 0 0 0 0 0 0 0 0.1 0"/>
<feBlend mode="normal" in2="BackgroundImageFix" result="effect1_dropShadow_123_222"/>
<feColorMatrix in="SourceAlpha" type="matrix" values="0 0 0 0 0 0 0 0 0 0 0 0 0 0 0 0 0 0 127 0" result="hardAlpha"/>
<feOffset dy="29"/>
<feGaussianBlur stdDeviation="14.5"/>
<feColorMatrix type="matrix" values="0 0 0 0 0 0 0 0 0 0 0 0 0 0 0 0 0 0 0.09 0"/>
<feBlend mode="normal" in2="effect1_dropShadow_123_222" result="effect2_dropShadow_123_222"/>
<feColorMatrix in="SourceAlpha" type="matrix" values="0 0 0 0 0 0 0 0 0 0 0 0 0 0 0 0 0 0 127 0" result="hardAlpha"/>
<feOffset dy="66"/>
<feGaussianBlur stdDeviation="20"/>
<feColorMatrix type="matrix" values="0 0 0 0 0 0 0 0 0 0 0 0 0 0 0 0 0 0 0.05 0"/>
<feBlend mode="normal" in2="effect2_dropShadow_123_222" result="effect3_dropShadow_123_222"/>
<feColorMatrix in="SourceAlpha" type="matrix" values="0 0 0 0 0 0 0 0 0 0 0 0 0 0 0 0 0 0 127 0" result="hardAlpha"/>
<feOffset dy="117"/>
<feGaussianBlur stdDeviation="23.5"/>
<feColorMatrix type="matrix" values="0 0 0 0 0 0 0 0 0 0 0 0 0 0 0 0 0 0 0.01 0"/>
<feBlend mode="normal" in2="effect3_dropShadow_123_222" result="effect4_dropShadow_123_222"/>
<feBlend mode="normal" in="SourceGraphic" in2="effect4_dropShadow_123_222" result="shape"/>
</filter>
</defs>
</svg>
