<svg width="3043" height="1623" viewBox="0 0 3043 1623" fill="none" xmlns="http://www.w3.org/2000/svg">
<g opacity="0.7" filter="url(#filter0_f_123_178)">
<rect x="764.625" y="229" width="1517.2" height="477.154" rx="64" fill="white"/>
<rect x="767.125" y="231.5" width="1512.2" height="472.154" rx="61.5" stroke="#C3D0E2" stroke-opacity="0.88" stroke-width="5"/>
<rect x="839.156" y="572.508" width="301.949" height="85.7387" rx="42.8693" fill="#E2E8F0"/>
<rect x="836.656" y="570.008" width="306.949" height="90.7387" rx="45.3693" stroke="#CFD9F1" stroke-opacity="0.7" stroke-width="5"/>
<rect x="1189.61" y="572.508" width="518.16" height="85.7387" rx="42.8693" fill="#E2E8F0"/>
<rect x="1187.11" y="570.008" width="523.16" height="90.7387" rx="45.3693" stroke="#CFD9F1" stroke-opacity="0.7" stroke-width="5"/>
<rect x="839.039" y="386.648" width="1190.54" height="67.2619" rx="33.6309" fill="#E2E8F0"/>
<rect x="586.555" y="288.164" width="1873.47" height="589.199" rx="64" fill="white"/>
<rect x="589.055" y="290.664" width="1868.47" height="584.199" rx="61.5" stroke="#C3D0E2" stroke-opacity="0.91" stroke-width="5"/>
<rect x="678.711" y="711.102" width="372.852" height="105.872" rx="52.9358" fill="#E2E8F0"/>
<rect x="676.211" y="708.602" width="377.852" height="110.872" rx="55.4358" stroke="#CFD9F1" stroke-opacity="0.7" stroke-width="5"/>
<rect x="1111.29" y="711.102" width="639.833" height="105.872" rx="52.9358" fill="#E2E8F0"/>
<rect x="1108.79" y="708.602" width="644.833" height="110.872" rx="55.4358" stroke="#CFD9F1" stroke-opacity="0.7" stroke-width="5"/>
<rect x="678.445" y="481.602" width="1470.09" height="83.0562" rx="41.5281" fill="#E2E8F0"/>
<rect x="451.391" y="356.555" width="2143.74" height="674.198" rx="64" fill="white"/>
<rect x="453.891" y="359.055" width="2138.74" height="669.198" rx="61.5" stroke="#C3D0E2" stroke-opacity="0.94" stroke-width="5"/>
<rect x="556.797" y="813.492" width="426.641" height="121.145" rx="60.5724" fill="#E2E8F0"/>
<rect x="554.297" y="810.992" width="431.641" height="126.145" rx="63.0724" stroke="#CFD9F1" stroke-opacity="0.7" stroke-width="5"/>
<rect x="1051.81" y="813.492" width="732.137" height="121.145" rx="60.5724" fill="#E2E8F0"/>
<rect x="1049.31" y="810.992" width="737.137" height="126.145" rx="63.0724" stroke="#CFD9F1" stroke-opacity="0.7" stroke-width="5"/>
<rect x="556.562" y="550.883" width="1682.17" height="95.0381" rx="47.519" fill="#E2E8F0"/>
<rect x="303.969" y="439.602" width="2432.44" height="764.992" rx="64" fill="white"/>
<rect x="306.469" y="442.102" width="2427.44" height="759.992" rx="61.5" stroke="#C3D0E2" stroke-opacity="0.97" stroke-width="5"/>
<rect x="423.555" y="926.508" width="484.097" height="137.46" rx="68.7298" fill="#E2E8F0"/>
<rect x="421.055" y="924.008" width="489.097" height="142.46" rx="71.2298" stroke="#CFD9F1" stroke-opacity="0.7" stroke-width="5"/>
<rect x="985.32" y="926.508" width="830.734" height="137.46" rx="68.7298" fill="#E2E8F0"/>
<rect x="982.82" y="924.008" width="835.734" height="142.46" rx="71.2298" stroke="#CFD9F1" stroke-opacity="0.7" stroke-width="5"/>
<rect x="423.242" y="628.508" width="1908.71" height="107.837" rx="8" fill="#E2E8F0"/>
<rect x="131.258" y="533.312" width="2781.01" height="871.188" rx="61.5" fill="white" stroke="#C3D0E2" stroke-width="5"/>
<rect x="265.695" y="1057.87" width="554.463" height="157.44" rx="78.72" fill="#E2E8F0"/>
<rect x="263.195" y="1055.37" width="559.463" height="162.44" rx="81.22" stroke="#CFD9F1" stroke-opacity="0.7" stroke-width="5"/>
<rect x="909.156" y="1057.87" width="951.486" height="157.44" rx="78.72" fill="#E2E8F0"/>
<rect x="906.656" y="1055.37" width="956.486" height="162.44" rx="81.22" stroke="#CFD9F1" stroke-opacity="0.7" stroke-width="5"/>
<rect x="265.383" y="716.617" width="2186.16" height="123.512" rx="8" fill="#E2E8F0"/>
</g>
<g filter="url(#filter1_dddd_123_178)">
<circle cx="1521.5" cy="811.5" r="278.5" fill="#E80F0F"/>
<path d="M1521.5 958.297C1500.67 958.297 1482.83 954.911 1467.98 948.141C1453.27 941.24 1442.01 931.604 1434.2 919.234C1426.38 906.865 1422.48 892.411 1422.48 875.875V875.484C1422.48 862.724 1424.89 851.591 1429.7 842.086C1434.52 832.451 1441.03 824.703 1449.23 818.844C1457.57 812.854 1466.81 808.948 1476.97 807.125V805.562C1463.56 802.307 1452.23 795.276 1442.98 784.469C1433.87 773.531 1429.31 759.99 1429.31 743.844V743.453C1429.31 728.219 1433.02 714.938 1440.45 703.609C1448 692.281 1458.67 683.492 1472.48 677.242C1486.28 670.992 1502.62 667.867 1521.5 667.867C1540.38 667.867 1556.72 670.992 1570.52 677.242C1584.33 683.492 1594.94 692.281 1602.36 703.609C1609.91 714.938 1613.69 728.219 1613.69 743.453V743.844C1613.69 759.99 1609.07 773.531 1599.82 784.469C1590.71 795.276 1579.44 802.307 1566.03 805.562V807.125C1576.19 808.948 1585.37 812.854 1593.57 818.844C1601.9 824.703 1608.48 832.451 1613.3 842.086C1618.11 851.591 1620.52 862.724 1620.52 875.484V875.875C1620.52 892.411 1616.62 906.865 1608.8 919.234C1600.99 931.604 1589.66 941.24 1574.82 948.141C1560.11 954.911 1542.33 958.297 1521.5 958.297ZM1521.5 906.148C1526.06 906.148 1529.9 904.846 1533.02 902.242C1536.28 899.638 1538.69 895.797 1540.25 890.719C1541.94 885.641 1542.79 879.326 1542.79 871.773V871.383C1542.79 863.701 1541.94 857.32 1540.25 852.242C1538.69 847.034 1536.28 843.128 1533.02 840.523C1529.9 837.789 1526.06 836.422 1521.5 836.422C1516.94 836.422 1513.04 837.789 1509.78 840.523C1506.66 843.128 1504.25 847.034 1502.55 852.242C1500.99 857.32 1500.21 863.701 1500.21 871.383V871.773C1500.21 879.326 1500.99 885.641 1502.55 890.719C1504.25 895.797 1506.66 899.638 1509.78 902.242C1513.04 904.846 1516.94 906.148 1521.5 906.148ZM1521.5 784.859C1525.54 784.859 1528.99 783.622 1531.85 781.148C1534.72 778.674 1536.86 775.094 1538.3 770.406C1539.86 765.589 1540.64 759.599 1540.64 752.438V752.047C1540.64 745.016 1539.86 739.091 1538.3 734.273C1536.86 729.456 1534.72 725.875 1531.85 723.531C1528.99 721.057 1525.54 719.82 1521.5 719.82C1517.46 719.82 1514.01 721.057 1511.15 723.531C1508.28 725.875 1506.07 729.456 1504.51 734.273C1503.08 739.091 1502.36 745.016 1502.36 752.047V752.438C1502.36 759.599 1503.08 765.589 1504.51 770.406C1506.07 775.094 1508.28 778.674 1511.15 781.148C1514.01 783.622 1517.46 784.859 1521.5 784.859Z" fill="white"/>
</g>
<defs>
<filter id="filter0_f_123_178" x="113.758" y="214" width="2816.01" height="1208" filterUnits="userSpaceOnUse" color-interpolation-filters="sRGB">
<feFlood flood-opacity="0" result="BackgroundImageFix"/>
<feBlend mode="normal" in="SourceGraphic" in2="BackgroundImageFix" result="shape"/>
<feGaussianBlur stdDeviation="7.5" result="effect1_foregroundBlur_123_178"/>
</filter>
<filter id="filter1_dddd_123_178" x="1196" y="524" width="651" height="730" filterUnits="userSpaceOnUse" color-interpolation-filters="sRGB">
<feFlood flood-opacity="0" result="BackgroundImageFix"/>
<feColorMatrix in="SourceAlpha" type="matrix" values="0 0 0 0 0 0 0 0 0 0 0 0 0 0 0 0 0 0 127 0" result="hardAlpha"/>
<feOffset dy="7"/>
<feGaussianBlur stdDeviation="8"/>
<feColorMatrix type="matrix" values="0 0 0 0 0 0 0 0 0 0 0 0 0 0 0 0 0 0 0.1 0"/>
<feBlend mode="normal" in2="BackgroundImageFix" result="effect1_dropShadow_123_178"/>
<feColorMatrix in="SourceAlpha" type="matrix" values="0 0 0 0 0 0 0 0 0 0 0 0 0 0 0 0 0 0 127 0" result="hardAlpha"/>
<feOffset dy="29"/>
<feGaussianBlur stdDeviation="14.5"/>
<feColorMatrix type="matrix" values="0 0 0 0 0 0 0 0 0 0 0 0 0 0 0 0 0 0 0.09 0"/>
<feBlend mode="normal" in2="effect1_dropShadow_123_178" result="effect2_dropShadow_123_178"/>
<feColorMatrix in="SourceAlpha" type="matrix" values="0 0 0 0 0 0 0 0 0 0 0 0 0 0 0 0 0 0 127 0" result="hardAlpha"/>
<feOffset dy="66"/>
<feGaussianBlur stdDeviation="20"/>
<feColorMatrix type="matrix" values="0 0 0 0 0 0 0 0 0 0 0 0 0 0 0 0 0 0 0.05 0"/>
<feBlend mode="normal" in2="effect2_dropShadow_123_178" result="effect3_dropShadow_123_178"/>
<feColorMatrix in="SourceAlpha" type="matrix" values="0 0 0 0 0 0 0 0 0 0 0 0 0 0 0 0 0 0 127 0" result="hardAlpha"/>
<feOffset dy="117"/>
<feGaussianBlur stdDeviation="23.5"/>
<feColorMatrix type="matrix" values="0 0 0 0 0 0 0 0 0 0 0 0 0 0 0 0 0 0 0.01 0"/>
<feBlend mode="normal" in2="effect3_dropShadow_123_178" result="effect4_dropShadow_123_178"/>
<feBlend mode="normal" in="SourceGraphic" in2="effect4_dropShadow_123_178" result="shape"/>
</filter>
</defs>
</svg>
