<svg width="3043" height="1623" viewBox="0 0 3043 1623" fill="none" xmlns="http://www.w3.org/2000/svg">
<rect width="3043" height="1623" fill="#020817"/>
<g filter="url(#filter0_f_98_3726)">
<path d="M1932.77 1196.47C1949.68 1199.77 1966.59 1204.71 1986.32 1208.01C2000.42 1211.31 2008.87 1221.21 2003.23 1229.46C2000.42 1236.05 1989.14 1241 1977.87 1241C1975.05 1241 1972.23 1241 1969.41 1239.35C1952.5 1236.05 1932.77 1231.1 1915.85 1227.81C1901.76 1224.51 1893.3 1214.61 1898.94 1206.36C1901.76 1196.47 1918.67 1193.17 1932.77 1196.47Z" fill="#454F61"/>
<path d="M1822.69 1204.7C1819.88 1204.7 1814.24 1204.7 1811.42 1203.05C1777.59 1194.8 1743.77 1186.56 1709.95 1178.31C1695.85 1175.01 1690.21 1165.11 1695.85 1156.87C1701.49 1148.62 1718.4 1145.32 1732.5 1148.62C1763.5 1156.87 1797.33 1165.11 1831.15 1173.36C1845.24 1176.66 1853.7 1186.56 1845.24 1194.8C1845.24 1201.4 1833.97 1204.7 1822.69 1204.7Z" fill="#454F61"/>
<path d="M1436.71 530.118C1431.08 530.118 1428.26 530.118 1422.62 528.469C1397.25 520.222 1363.43 510.325 1326.78 502.078C1312.69 498.78 1304.24 488.883 1309.87 480.637C1315.51 472.39 1332.42 467.442 1346.52 470.74C1388.8 480.637 1422.62 488.883 1450.81 498.78C1464.9 503.728 1467.72 513.624 1462.08 521.871C1456.45 526.819 1447.99 530.118 1436.71 530.118Z" fill="#454F61"/>
<path d="M1318.25 729.709C1329.53 724.761 1349.26 726.41 1357.72 733.008C1366.17 739.605 1363.35 751.151 1352.08 756.099C1318.25 770.944 1292.89 784.139 1270.34 795.684C1264.7 798.983 1259.06 800.632 1250.61 800.632C1242.15 800.632 1236.51 798.983 1230.87 795.684C1219.6 789.087 1219.6 779.19 1230.87 772.593C1256.24 759.398 1281.61 746.203 1318.25 729.709Z" fill="#454F61"/>
<path d="M1557.74 625.801H1554.93C1540.83 624.151 1529.56 615.904 1532.38 607.657C1532.38 606.008 1532.38 604.359 1532.38 601.06C1532.38 599.411 1532.38 597.761 1532.38 596.112C1529.56 584.566 1521.1 573.021 1504.19 561.475C1492.91 554.877 1495.73 544.981 1507.01 538.384C1518.28 531.786 1535.19 533.435 1546.47 540.033C1571.84 556.527 1585.93 574.67 1588.75 592.813C1588.75 596.112 1588.75 597.761 1588.75 601.06C1588.75 604.359 1588.75 607.657 1588.75 612.606C1583.11 620.853 1571.84 625.801 1557.74 625.801Z" fill="#454F61"/>
<path d="M1523.97 652.195C1535.25 658.793 1535.25 668.689 1523.97 675.287C1504.24 688.482 1476.06 701.677 1436.59 718.171C1430.96 719.82 1425.32 721.469 1419.68 721.469C1411.23 721.469 1402.77 719.82 1397.13 714.872C1388.68 708.274 1391.49 696.729 1402.77 691.781C1439.41 675.287 1461.96 663.741 1481.69 652.195C1495.79 647.247 1512.7 647.247 1523.97 652.195Z" fill="#454F61"/>
<path d="M1236.54 482.321C1233.72 482.321 1230.9 482.321 1228.08 482.321C1197.08 477.372 1163.25 470.775 1123.79 465.827C1109.7 464.177 1098.42 454.281 1104.06 446.034C1106.88 437.787 1123.79 431.19 1137.88 434.489C1177.35 441.086 1211.17 446.034 1244.99 452.632C1259.09 455.93 1267.54 464.177 1264.73 472.424C1259.09 477.372 1247.81 482.321 1236.54 482.321Z" fill="#454F61"/>
<path d="M1622.67 1153.61C1619.85 1153.61 1614.21 1153.61 1611.39 1151.96C1577.57 1142.06 1543.74 1132.17 1512.74 1123.92C1498.64 1118.97 1493.01 1109.07 1501.46 1102.48C1509.92 1094.23 1526.83 1090.93 1538.11 1095.88C1569.11 1105.78 1600.12 1114.02 1633.94 1123.92C1648.04 1127.22 1653.67 1137.11 1648.04 1145.36C1642.4 1150.31 1633.94 1153.61 1622.67 1153.61Z" fill="#454F61"/>
<path d="M1157.46 909.509C1154.64 909.509 1154.64 909.509 1157.46 909.509C1140.54 909.509 1129.27 902.911 1129.27 893.015V888.067V883.119C1132.09 863.326 1140.54 843.534 1160.28 823.741C1168.73 815.494 1185.64 813.845 1199.74 817.144C1213.83 822.092 1216.65 831.988 1211.01 840.235C1196.92 855.079 1188.46 869.924 1188.46 884.768V888.067V891.366C1182.83 901.262 1171.55 909.509 1157.46 909.509Z" fill="#454F61"/>
<path d="M1027.93 449.332C1025.11 449.332 1025.11 449.332 1022.3 449.332C988.471 444.383 954.647 441.085 915.185 436.137C901.091 434.487 889.816 426.24 892.635 416.344C895.454 408.097 909.548 401.5 926.46 403.149C963.103 408.097 999.746 411.396 1033.57 416.344C1047.66 417.993 1058.94 426.24 1056.12 436.137C1050.48 444.383 1039.21 449.332 1027.93 449.332Z" fill="#454F61"/>
<path d="M1456.35 1085.97C1450.71 1090.92 1442.25 1094.22 1430.98 1094.22C1425.34 1094.22 1419.71 1094.22 1416.89 1092.57C1383.06 1081.02 1352.06 1067.83 1323.87 1056.28C1312.59 1051.33 1309.78 1041.44 1318.23 1033.19C1326.69 1026.59 1343.6 1024.94 1357.69 1029.89C1383.06 1041.44 1414.07 1052.98 1445.07 1064.53C1459.17 1067.83 1461.99 1077.72 1456.35 1085.97Z" fill="#454F61"/>
<path d="M1276.02 990.288C1287.3 996.885 1287.3 1006.78 1276.02 1013.38C1270.38 1016.68 1261.93 1018.33 1256.29 1018.33C1250.65 1018.33 1242.2 1016.68 1236.56 1013.38C1205.55 995.236 1180.18 978.742 1163.27 960.599C1154.82 952.352 1160.45 942.456 1171.73 937.507C1185.82 932.559 1202.73 935.858 1211.19 942.456C1228.1 958.949 1250.65 975.443 1276.02 990.288Z" fill="#454F61"/>
<path d="M810.994 424.541C808.175 424.541 808.175 424.541 805.356 424.541C788.444 422.891 768.713 421.242 748.982 419.593C734.889 417.943 723.614 409.696 726.433 401.449C729.252 393.203 743.345 386.605 757.439 388.254C777.169 389.904 794.082 391.553 813.813 393.203C827.906 394.852 839.181 403.099 836.362 411.346C836.362 419.593 825.087 424.541 810.994 424.541Z" fill="#454F61"/>
<path d="M2799.99 1388.99C2643.97 1545 2391.03 1545 2235.01 1388.99C2079 1232.97 2079 980.025 2235.01 824.011C2391.03 667.996 2643.97 667.996 2799.99 824.011C2956 980.025 2956 1232.97 2799.99 1388.99Z" fill="#1E293B"/>
<path d="M2277.12 1098.94C2252.57 1074.39 2252.57 1034.58 2277.12 1010.03V1010.03C2301.67 985.477 2341.48 985.477 2366.03 1010.03L2408.36 1052.36C2409.54 1053.53 2409.54 1055.43 2408.36 1056.61L2323.7 1141.27C2322.52 1142.45 2320.63 1142.45 2319.45 1141.27L2277.12 1098.94Z" fill="black"/>
<rect x="2330.58" y="1152.41" width="125.739" height="125.739" transform="rotate(-45 2330.58 1152.41)" fill="black"/>
<path fill-rule="evenodd" clip-rule="evenodd" d="M2891.23 965.05L2517.22 1339.06L2428.31 1250.14L2825.43 853.023L2830.17 857.762C2856.52 890.802 2876.87 927.051 2891.23 965.05Z" fill="black"/>
<path d="M242.856 111.182C128.535 135.482 73.8942 242.721 121.432 349.492C168.969 456.262 301.398 523.739 415.719 499.439C530.04 475.139 584.682 367.9 537.144 261.129C489.607 154.359 357.177 86.8824 242.856 111.182ZM441.859 302.633L358.717 320.305L393.289 397.957C404.525 423.193 362.954 432.029 351.718 406.793L317.145 329.141L234.003 346.814C206.982 352.557 189.695 313.732 216.717 307.988L299.859 290.316L265.287 212.664C254.051 187.428 295.622 178.592 306.858 203.828L341.43 281.479L424.573 263.807C451.594 258.063 468.88 296.889 441.859 302.633Z" fill="#1E293B"/>
<circle cx="88.6268" cy="88.6268" r="88.6268" transform="matrix(0.866025 -0.5 0.866025 0.5 811.211 838.371)" fill="#020817"/>
<path d="M1046.53 885.601C1001.69 911.486 929.01 911.486 884.175 885.601C839.341 859.716 839.341 817.753 884.175 791.868C929.01 765.983 1001.69 765.983 1046.53 791.868C1091.34 817.764 1091.34 859.726 1046.53 885.601ZM914.095 804.207L905.528 809.153L964.422 843.155L964.786 843.974L1046.49 831.331L1043.36 824.589L969.261 836.057L914.095 804.207Z" fill="#1E293B"/>
<circle cx="134.896" cy="134.896" r="134.896" transform="matrix(0.970296 0.241922 -0.743145 0.669131 1691.64 811.336)" fill="#020817"/>
<path d="M1827.48 839.514C1790.77 830.362 1744.37 831.641 1698.54 843.067C1652.7 854.495 1611.14 875.146 1583.02 900.463C1554.91 925.781 1542.52 953.704 1548.6 978.076C1554.67 1002.45 1578.72 1021.29 1615.43 1030.44C1652.14 1039.59 1698.53 1038.31 1744.37 1026.89C1790.2 1015.46 1831.77 994.81 1859.88 969.492C1887.95 944.174 1900.32 916.268 1894.24 891.897C1888.16 867.526 1864.14 848.693 1827.48 839.514ZM1744.71 971.66C1745.68 975.559 1740.52 980.204 1733.19 982.033C1725.85 983.861 1719.12 982.182 1718.14 978.282L1709.92 945.36L1648 960.793C1640.66 962.621 1633.93 960.942 1632.96 957.043C1631.98 953.143 1637.14 948.499 1644.48 946.67L1706.4 931.224L1698.2 898.296C1697.5 894.428 1702.62 889.951 1709.78 888.161C1716.94 886.382 1723.57 887.929 1724.76 891.673L1732.98 924.596L1794.92 909.154L1794.91 909.163C1802.1 907.51 1808.54 909.221 1809.5 913.024C1810.44 916.833 1805.56 921.37 1798.43 923.285L1736.51 938.731L1744.71 971.66Z" fill="#1E293B"/>
</g>
<g filter="url(#filter1_dddd_98_3726)">
<mask id="path-23-inside-1_98_3726" fill="white">
<path d="M2127.16 279.995H2094.09V225.652C2095.93 209.999 2091.06 194.346 2080.58 182.533C2070.18 170.719 2055.12 164 2039.4 164C2023.6 164 2008.62 170.719 1998.14 182.533C1987.66 194.346 1982.79 209.999 1984.63 225.652V279.995H1439.85V225.652C1441.7 209.999 1436.83 194.346 1426.35 182.533C1415.94 170.719 1400.88 164 1385.16 164C1369.37 164 1354.38 170.719 1343.9 182.533C1333.42 194.346 1328.55 209.999 1330.4 225.652V279.995H1297.33C1195.48 279.995 1112.81 362.396 1112.37 464.288V794.335C1112.37 824.756 1137.02 849.417 1167.43 849.417C1197.91 849.417 1222.56 824.756 1222.56 794.335V607.678H2201.92V1076.31V1076.24C2201.92 1097.14 2193.66 1117.22 2178.89 1131.99C2164.13 1146.75 2144.13 1155.02 2123.24 1155.02H1745.35C1729.7 1153.18 1713.98 1158.05 1702.17 1168.53C1690.36 1178.95 1683.64 1194.01 1683.64 1209.74C1683.64 1225.54 1690.36 1240.52 1702.17 1251.01C1713.98 1261.49 1729.7 1266.37 1745.35 1264.52H2123.24C2173.51 1265.56 2222.07 1246.14 2257.72 1210.62C2293.37 1175.11 2313 1126.6 2312.19 1076.24V464.29C2311.75 362.397 2229.01 279.995 2127.16 279.995ZM1222.56 497.367V464.288C1222.49 422.275 1255.41 387.647 1297.33 385.579H2127.16C2148.04 385.579 2168.05 393.849 2182.81 408.617C2197.57 423.385 2205.91 443.392 2205.91 464.288V497.367H1222.56ZM1376.08 1245.54L1183.96 1442.46C1173.33 1452.5 1159.23 1458.12 1144.62 1458.26C1130.23 1458.19 1116.43 1452.5 1106.02 1442.46C1084.39 1420.68 1084.39 1385.54 1106.02 1363.75L1205.22 1261.34H792.704C777.057 1263.19 761.335 1258.32 749.526 1247.83C737.79 1237.42 731 1222.36 731 1206.63C731 1190.83 737.79 1175.84 749.526 1165.36C761.335 1154.87 777.056 1150 792.704 1151.84H1205.22L1106.02 1052.61C1084.32 1030.9 1084.32 995.608 1106.02 973.9C1127.79 952.119 1163 952.119 1184.77 973.9L1376.9 1166.09V1166.02C1382.21 1171.04 1386.27 1177.24 1388.71 1184.18C1394.17 1197.55 1394.17 1212.54 1388.71 1225.9C1386.49 1233.58 1382.14 1240.45 1376.08 1245.62L1376.08 1245.54ZM1580.75 1166.76V1166.83C1602.38 1188.61 1602.38 1223.76 1580.75 1245.62L1387.89 1442.46C1377.56 1453.09 1363.31 1459 1348.55 1459C1333.72 1459 1319.55 1453.09 1309.14 1442.46C1298.37 1432.2 1292.31 1418.02 1292.31 1403.11C1292.31 1388.19 1298.37 1374.02 1309.14 1363.75L1466.57 1210.18L1309.14 1052.68V1052.61C1287.44 1030.9 1287.44 995.61 1309.14 973.901C1330.91 952.12 1366.12 952.12 1387.89 973.901L1580.75 1166.76Z"/>
</mask>
<path d="M2127.16 279.995H2094.09V225.652C2095.93 209.999 2091.06 194.346 2080.58 182.533C2070.18 170.719 2055.12 164 2039.4 164C2023.6 164 2008.62 170.719 1998.14 182.533C1987.66 194.346 1982.79 209.999 1984.63 225.652V279.995H1439.85V225.652C1441.7 209.999 1436.83 194.346 1426.35 182.533C1415.94 170.719 1400.88 164 1385.16 164C1369.37 164 1354.38 170.719 1343.9 182.533C1333.42 194.346 1328.55 209.999 1330.4 225.652V279.995H1297.33C1195.48 279.995 1112.81 362.396 1112.37 464.288V794.335C1112.37 824.756 1137.02 849.417 1167.43 849.417C1197.91 849.417 1222.56 824.756 1222.56 794.335V607.678H2201.92V1076.31V1076.24C2201.92 1097.14 2193.66 1117.22 2178.89 1131.99C2164.13 1146.75 2144.13 1155.02 2123.24 1155.02H1745.35C1729.7 1153.18 1713.98 1158.05 1702.17 1168.53C1690.36 1178.95 1683.64 1194.01 1683.64 1209.74C1683.64 1225.54 1690.36 1240.52 1702.17 1251.01C1713.98 1261.49 1729.7 1266.37 1745.35 1264.52H2123.24C2173.51 1265.56 2222.07 1246.14 2257.72 1210.62C2293.37 1175.11 2313 1126.6 2312.19 1076.24V464.29C2311.75 362.397 2229.01 279.995 2127.16 279.995ZM1222.56 497.367V464.288C1222.49 422.275 1255.41 387.647 1297.33 385.579H2127.16C2148.04 385.579 2168.05 393.849 2182.81 408.617C2197.57 423.385 2205.91 443.392 2205.91 464.288V497.367H1222.56ZM1376.08 1245.54L1183.96 1442.46C1173.33 1452.5 1159.23 1458.12 1144.62 1458.26C1130.23 1458.19 1116.43 1452.5 1106.02 1442.46C1084.39 1420.68 1084.39 1385.54 1106.02 1363.75L1205.22 1261.34H792.704C777.057 1263.19 761.335 1258.32 749.526 1247.83C737.79 1237.42 731 1222.36 731 1206.63C731 1190.83 737.79 1175.84 749.526 1165.36C761.335 1154.87 777.056 1150 792.704 1151.84H1205.22L1106.02 1052.61C1084.32 1030.9 1084.32 995.608 1106.02 973.9C1127.79 952.119 1163 952.119 1184.77 973.9L1376.9 1166.09V1166.02C1382.21 1171.04 1386.27 1177.24 1388.71 1184.18C1394.17 1197.55 1394.17 1212.54 1388.71 1225.9C1386.49 1233.58 1382.14 1240.45 1376.08 1245.62L1376.08 1245.54ZM1580.75 1166.76V1166.83C1602.38 1188.61 1602.38 1223.76 1580.75 1245.62L1387.89 1442.46C1377.56 1453.09 1363.31 1459 1348.55 1459C1333.72 1459 1319.55 1453.09 1309.14 1442.46C1298.37 1432.2 1292.31 1418.02 1292.31 1403.11C1292.31 1388.19 1298.37 1374.02 1309.14 1363.75L1466.57 1210.18L1309.14 1052.68V1052.61C1287.44 1030.9 1287.44 995.61 1309.14 973.901C1330.91 952.12 1366.12 952.12 1387.89 973.901L1580.75 1166.76Z" fill="black"/>
<path d="M2127.16 279.995H2094.09V225.652C2095.93 209.999 2091.06 194.346 2080.58 182.533C2070.18 170.719 2055.12 164 2039.4 164C2023.6 164 2008.62 170.719 1998.14 182.533C1987.66 194.346 1982.79 209.999 1984.63 225.652V279.995H1439.85V225.652C1441.7 209.999 1436.83 194.346 1426.35 182.533C1415.94 170.719 1400.88 164 1385.16 164C1369.37 164 1354.38 170.719 1343.9 182.533C1333.42 194.346 1328.55 209.999 1330.4 225.652V279.995H1297.33C1195.48 279.995 1112.81 362.396 1112.37 464.288V794.335C1112.37 824.756 1137.02 849.417 1167.43 849.417C1197.91 849.417 1222.56 824.756 1222.56 794.335V607.678H2201.92V1076.31V1076.24C2201.92 1097.14 2193.66 1117.22 2178.89 1131.99C2164.13 1146.75 2144.13 1155.02 2123.24 1155.02H1745.35C1729.7 1153.18 1713.98 1158.05 1702.17 1168.53C1690.36 1178.95 1683.64 1194.01 1683.64 1209.74C1683.64 1225.54 1690.36 1240.52 1702.17 1251.01C1713.98 1261.49 1729.7 1266.37 1745.35 1264.52H2123.24C2173.51 1265.56 2222.07 1246.14 2257.72 1210.62C2293.37 1175.11 2313 1126.6 2312.19 1076.24V464.29C2311.75 362.397 2229.01 279.995 2127.16 279.995ZM1222.56 497.367V464.288C1222.49 422.275 1255.41 387.647 1297.33 385.579H2127.16C2148.04 385.579 2168.05 393.849 2182.81 408.617C2197.57 423.385 2205.91 443.392 2205.91 464.288V497.367H1222.56ZM1376.08 1245.54L1183.96 1442.46C1173.33 1452.5 1159.23 1458.12 1144.62 1458.26C1130.23 1458.19 1116.43 1452.5 1106.02 1442.46C1084.39 1420.68 1084.39 1385.54 1106.02 1363.75L1205.22 1261.34H792.704C777.057 1263.19 761.335 1258.32 749.526 1247.83C737.79 1237.42 731 1222.36 731 1206.63C731 1190.83 737.79 1175.84 749.526 1165.36C761.335 1154.87 777.056 1150 792.704 1151.84H1205.22L1106.02 1052.61C1084.32 1030.9 1084.32 995.608 1106.02 973.9C1127.79 952.119 1163 952.119 1184.77 973.9L1376.9 1166.09V1166.02C1382.21 1171.04 1386.27 1177.24 1388.71 1184.18C1394.17 1197.55 1394.17 1212.54 1388.71 1225.9C1386.49 1233.58 1382.14 1240.45 1376.08 1245.62L1376.08 1245.54ZM1580.75 1166.76V1166.83C1602.38 1188.61 1602.38 1223.76 1580.75 1245.62L1387.89 1442.46C1377.56 1453.09 1363.31 1459 1348.55 1459C1333.72 1459 1319.55 1453.09 1309.14 1442.46C1298.37 1432.2 1292.31 1418.02 1292.31 1403.11C1292.31 1388.19 1298.37 1374.02 1309.14 1363.75L1466.57 1210.18L1309.14 1052.68V1052.61C1287.44 1030.9 1287.44 995.61 1309.14 973.901C1330.91 952.12 1366.12 952.12 1387.89 973.901L1580.75 1166.76Z" stroke="white" stroke-width="20" mask="url(#path-23-inside-1_98_3726)"/>
</g>
<defs>
<filter id="filter0_f_98_3726" x="64.2656" y="66.2266" width="2892.73" height="1479.77" filterUnits="userSpaceOnUse" color-interpolation-filters="sRGB">
<feFlood flood-opacity="0" result="BackgroundImageFix"/>
<feBlend mode="normal" in="SourceGraphic" in2="BackgroundImageFix" result="shape"/>
<feGaussianBlur stdDeviation="20" result="effect1_foregroundBlur_98_3726"/>
</filter>
<filter id="filter1_dddd_98_3726" x="716" y="161" width="1611.22" height="1351" filterUnits="userSpaceOnUse" color-interpolation-filters="sRGB">
<feFlood flood-opacity="0" result="BackgroundImageFix"/>
<feColorMatrix in="SourceAlpha" type="matrix" values="0 0 0 0 0 0 0 0 0 0 0 0 0 0 0 0 0 0 127 0" result="hardAlpha"/>
<feOffset dy="2"/>
<feGaussianBlur stdDeviation="2.5"/>
<feColorMatrix type="matrix" values="0 0 0 0 0 0 0 0 0 0 0 0 0 0 0 0 0 0 0.2 0"/>
<feBlend mode="normal" in2="BackgroundImageFix" result="effect1_dropShadow_98_3726"/>
<feColorMatrix in="SourceAlpha" type="matrix" values="0 0 0 0 0 0 0 0 0 0 0 0 0 0 0 0 0 0 127 0" result="hardAlpha"/>
<feOffset dy="9"/>
<feGaussianBlur stdDeviation="4.5"/>
<feColorMatrix type="matrix" values="0 0 0 0 0 0 0 0 0 0 0 0 0 0 0 0 0 0 0.17 0"/>
<feBlend mode="normal" in2="effect1_dropShadow_98_3726" result="effect2_dropShadow_98_3726"/>
<feColorMatrix in="SourceAlpha" type="matrix" values="0 0 0 0 0 0 0 0 0 0 0 0 0 0 0 0 0 0 127 0" result="hardAlpha"/>
<feOffset dy="21"/>
<feGaussianBlur stdDeviation="6.5"/>
<feColorMatrix type="matrix" values="0 0 0 0 0 0 0 0 0 0 0 0 0 0 0 0 0 0 0.1 0"/>
<feBlend mode="normal" in2="effect2_dropShadow_98_3726" result="effect3_dropShadow_98_3726"/>
<feColorMatrix in="SourceAlpha" type="matrix" values="0 0 0 0 0 0 0 0 0 0 0 0 0 0 0 0 0 0 127 0" result="hardAlpha"/>
<feOffset dy="38"/>
<feGaussianBlur stdDeviation="7.5"/>
<feColorMatrix type="matrix" values="0 0 0 0 0 0 0 0 0 0 0 0 0 0 0 0 0 0 0.03 0"/>
<feBlend mode="normal" in2="effect3_dropShadow_98_3726" result="effect4_dropShadow_98_3726"/>
<feBlend mode="normal" in="SourceGraphic" in2="effect4_dropShadow_98_3726" result="shape"/>
</filter>
</defs>
</svg>
