<svg width="3043" height="1623" viewBox="0 0 3043 1623" fill="none" xmlns="http://www.w3.org/2000/svg">
<rect width="3043" height="1623" fill="#020817"/>
<g opacity="0.7">
<g filter="url(#filter0_f_100_3763)">
<path d="M2936.18 538.393C2994.2 535.253 3052.23 530.542 3119.92 527.402C3168.27 524.262 3197.28 514.841 3177.94 506.991C3168.27 500.71 3129.59 496 3090.91 496C3081.24 496 3071.57 496 3061.9 497.57C3003.87 500.71 2936.18 505.421 2878.16 508.561C2829.81 511.701 2800.8 521.122 2820.14 528.972C2829.81 538.393 2887.83 541.533 2936.18 538.393Z" fill="#2D3441"/>
</g>
<g filter="url(#filter1_f_100_3763)">
<path d="M2558.55 530.558C2548.88 530.558 2529.53 530.558 2519.86 532.128C2403.82 539.978 2287.77 547.829 2171.73 555.679C2123.38 558.82 2104.04 568.24 2123.38 576.091C2142.72 583.941 2200.74 587.081 2249.09 583.941C2355.47 576.091 2471.51 568.24 2587.56 560.39C2635.91 557.25 2664.92 547.829 2635.91 539.978C2635.91 533.698 2597.23 530.558 2558.55 530.558Z" fill="#2D3441"/>
</g>
<g filter="url(#filter2_f_100_3763)">
<path d="M827.91 982.718C866.591 987.429 934.284 985.858 963.296 979.578C992.307 973.298 982.636 962.307 943.955 957.597C827.91 943.466 740.876 930.905 663.513 919.914C644.172 916.774 624.832 915.204 595.82 915.204C566.809 915.204 547.468 916.774 528.127 919.914C489.446 926.195 489.446 935.615 528.127 941.896C615.161 954.457 702.195 967.017 827.91 982.718Z" fill="#2D3441"/>
</g>
<g filter="url(#filter3_f_100_3763)">
<path d="M1533.69 1056.5C1572.37 1050.22 1572.37 1040.8 1533.69 1034.52C1466 1021.96 1369.3 1009.4 1233.91 993.699C1214.57 992.129 1195.23 990.558 1175.89 990.558C1146.88 990.558 1117.86 992.129 1098.52 996.839C1069.51 1003.12 1079.18 1014.11 1117.86 1018.82C1243.58 1034.52 1320.94 1045.51 1388.64 1056.5C1436.99 1061.21 1495.01 1061.21 1533.69 1056.5Z" fill="#2D3441"/>
</g>
<g filter="url(#filter4_f_100_3763)">
<path d="M1872.29 579.193C1862.62 579.193 1843.28 579.193 1833.61 580.763C1717.56 590.184 1601.52 599.604 1495.14 607.455C1446.79 612.165 1427.45 621.586 1456.46 627.866C1485.47 635.716 1543.5 638.857 1582.18 634.146C1688.55 624.726 1794.93 616.875 1910.97 607.455C1959.32 604.314 1978.66 594.894 1959.32 587.043C1939.98 582.333 1910.97 579.193 1872.29 579.193Z" fill="#2D3441"/>
</g>
<g filter="url(#filter5_f_100_3763)">
<path d="M276.236 811.558C266.565 811.558 266.565 811.558 276.236 811.558C218.213 811.558 179.532 817.839 179.532 827.259L179.532 831.97L179.532 836.68C189.202 855.521 218.213 874.362 285.906 893.203C314.917 901.054 372.94 902.624 421.292 899.484C469.644 894.773 479.314 885.353 459.973 877.502C411.621 863.371 382.61 849.241 382.61 835.11L382.61 831.97L382.61 828.829C363.269 819.409 324.588 811.558 276.236 811.558Z" fill="#2D3441"/>
</g>
<g filter="url(#filter6_f_100_3763)">
<path d="M1301.69 643.577C1282.35 638.867 1253.34 635.727 1214.66 635.727C1195.32 635.727 1175.98 635.727 1166.31 637.297C1050.26 648.288 943.887 660.848 847.183 671.839C808.501 676.549 798.831 685.97 827.842 693.82C856.853 700.101 914.876 701.671 963.228 696.96C1050.26 685.97 1156.64 674.979 1263.01 663.988C1311.36 660.848 1321.03 651.428 1301.69 643.577Z" fill="#2D3441"/>
</g>
<g filter="url(#filter7_f_100_3763)">
<path d="M683.004 734.661C721.686 728.38 721.686 718.96 683.004 712.679C663.664 709.539 634.652 707.969 615.312 707.969C595.971 707.969 566.96 709.539 547.619 712.679C441.245 729.951 354.211 745.652 296.188 762.923C267.177 770.773 286.518 780.194 325.199 784.904C373.551 789.614 431.574 786.474 460.585 780.194C518.608 764.493 595.971 748.792 683.004 734.661Z" fill="#2D3441"/>
</g>
</g>
<g opacity="0.7">
<path d="M247.818 1581.61C189.796 1584.75 131.773 1589.46 64.0806 1592.6C15.7286 1595.74 -13.2827 1605.16 6.05814 1613.01C15.7285 1619.29 54.4101 1624 93.0918 1624C102.762 1624 112.433 1624 122.103 1622.43C180.126 1619.29 247.818 1614.58 305.841 1611.44C354.193 1608.3 383.204 1598.88 363.863 1591.03C354.193 1581.61 296.17 1578.47 247.818 1581.61Z" fill="#2D3441"/>
<path d="M625.454 1589.44C635.124 1589.44 654.465 1589.44 664.135 1587.87C780.18 1580.02 896.225 1572.17 1012.27 1564.32C1060.62 1561.18 1079.96 1551.76 1060.62 1543.91C1041.28 1536.06 983.259 1532.92 934.907 1536.06C828.532 1543.91 712.487 1551.76 596.443 1559.61C548.091 1562.75 519.079 1572.17 548.091 1580.02C548.091 1586.3 586.772 1589.44 625.454 1589.44Z" fill="#2D3441"/>
<path d="M2356.09 1137.28C2317.41 1132.57 2249.72 1134.14 2220.7 1140.42C2191.69 1146.7 2201.36 1157.69 2240.05 1162.4C2356.09 1176.53 2443.12 1189.09 2520.49 1200.09C2539.83 1203.23 2559.17 1204.8 2588.18 1204.8C2617.19 1204.8 2636.53 1203.23 2655.87 1200.09C2694.55 1193.81 2694.55 1184.38 2655.87 1178.1C2568.84 1165.54 2481.81 1152.98 2356.09 1137.28Z" fill="#2D3441"/>
<g filter="url(#filter8_f_100_3763)">
<path d="M1650.31 1063.5C1611.63 1069.78 1611.63 1079.2 1650.31 1085.48C1718 1098.04 1814.7 1110.6 1950.09 1126.3C1969.43 1127.87 1988.77 1129.44 2008.11 1129.44C2037.12 1129.44 2066.14 1127.87 2085.48 1123.16C2114.49 1116.88 2104.82 1105.89 2066.14 1101.18C1940.42 1085.48 1863.06 1074.49 1795.36 1063.5C1747.01 1058.79 1688.99 1058.79 1650.31 1063.5Z" fill="#2D3441"/>
</g>
<path d="M1311.71 1540.81C1321.38 1540.81 1340.72 1540.81 1350.39 1539.24C1466.44 1529.82 1582.48 1520.4 1688.86 1512.55C1737.21 1507.84 1756.55 1498.41 1727.54 1492.13C1698.53 1484.28 1640.5 1481.14 1601.82 1485.85C1495.45 1495.27 1389.07 1503.12 1273.03 1512.55C1224.68 1515.69 1205.34 1525.11 1224.68 1532.96C1244.02 1537.67 1273.03 1540.81 1311.71 1540.81Z" fill="#2D3441"/>
<path d="M2907.76 1308.44C2917.43 1308.44 2917.43 1308.44 2907.76 1308.44C2965.79 1308.44 3004.47 1302.16 3004.47 1292.74V1288.03V1283.32C2994.8 1264.48 2965.79 1245.64 2898.09 1226.8C2869.08 1218.95 2811.06 1217.38 2762.71 1220.52C2714.36 1225.23 2704.69 1234.65 2724.03 1242.5C2772.38 1256.63 2801.39 1270.76 2801.39 1284.89V1288.03V1291.17C2820.73 1300.59 2859.41 1308.44 2907.76 1308.44Z" fill="#2D3441"/>
<path d="M1882.31 1476.42C1901.65 1481.13 1930.66 1484.27 1969.34 1484.27C1988.68 1484.27 2008.02 1484.27 2017.69 1482.7C2133.74 1471.71 2240.11 1459.15 2336.82 1448.16C2375.5 1443.45 2385.17 1434.03 2356.16 1426.18C2327.15 1419.9 2269.12 1418.33 2220.77 1423.04C2133.74 1434.03 2027.36 1445.02 1920.99 1456.01C1872.64 1459.15 1862.97 1468.57 1882.31 1476.42Z" fill="#2D3441"/>
<path d="M2500 1386.34C2461.31 1392.62 2461.31 1402.04 2500 1408.32C2519.34 1411.46 2548.35 1413.03 2567.69 1413.03C2587.03 1413.03 2616.04 1411.46 2635.38 1408.32C2741.76 1391.05 2828.79 1375.35 2886.81 1358.08C2915.82 1350.23 2896.48 1340.81 2857.8 1336.1C2809.45 1331.39 2751.43 1334.53 2722.41 1340.81C2664.39 1356.51 2587.03 1372.21 2500 1386.34Z" fill="#2D3441"/>
</g>
<g filter="url(#filter9_dddd_100_3763)">
<mask id="path-17-inside-1_100_3763" fill="white">
<path d="M2127.16 279.995H2094.09V225.652C2095.93 209.999 2091.06 194.346 2080.58 182.533C2070.18 170.719 2055.12 164 2039.4 164C2023.6 164 2008.62 170.719 1998.14 182.533C1987.66 194.346 1982.79 209.999 1984.63 225.652V279.995H1439.85V225.652C1441.7 209.999 1436.83 194.346 1426.35 182.533C1415.94 170.719 1400.88 164 1385.16 164C1369.37 164 1354.38 170.719 1343.9 182.533C1333.42 194.346 1328.55 209.999 1330.4 225.652V279.995H1297.33C1195.48 279.995 1112.81 362.396 1112.37 464.288V794.335C1112.37 824.756 1137.02 849.417 1167.43 849.417C1197.91 849.417 1222.56 824.756 1222.56 794.335V607.678H2201.92V1076.31V1076.24C2201.92 1097.14 2193.66 1117.22 2178.89 1131.99C2164.13 1146.75 2144.13 1155.02 2123.24 1155.02H1745.35C1729.7 1153.18 1713.98 1158.05 1702.17 1168.53C1690.36 1178.95 1683.64 1194.01 1683.64 1209.74C1683.64 1225.54 1690.36 1240.52 1702.17 1251.01C1713.98 1261.49 1729.7 1266.37 1745.35 1264.52H2123.24C2173.51 1265.56 2222.07 1246.14 2257.72 1210.62C2293.37 1175.11 2313 1126.6 2312.19 1076.24V464.29C2311.75 362.397 2229.01 279.995 2127.16 279.995ZM1222.56 497.367V464.288C1222.49 422.275 1255.41 387.647 1297.33 385.579H2127.16C2148.04 385.579 2168.05 393.849 2182.81 408.617C2197.57 423.385 2205.91 443.392 2205.91 464.288V497.367H1222.56ZM1376.08 1245.54L1183.96 1442.46C1173.33 1452.5 1159.23 1458.12 1144.62 1458.26C1130.23 1458.19 1116.43 1452.5 1106.02 1442.46C1084.39 1420.68 1084.39 1385.54 1106.02 1363.75L1205.22 1261.34H792.704C777.057 1263.19 761.335 1258.32 749.526 1247.83C737.79 1237.42 731 1222.36 731 1206.63C731 1190.83 737.79 1175.84 749.526 1165.36C761.335 1154.87 777.056 1150 792.704 1151.84H1205.22L1106.02 1052.61C1084.32 1030.9 1084.32 995.608 1106.02 973.9C1127.79 952.119 1163 952.119 1184.77 973.9L1376.9 1166.09V1166.02C1382.21 1171.04 1386.27 1177.24 1388.71 1184.18C1394.17 1197.55 1394.17 1212.54 1388.71 1225.9C1386.49 1233.58 1382.14 1240.45 1376.08 1245.62L1376.08 1245.54ZM1580.75 1166.76V1166.83C1602.38 1188.61 1602.38 1223.76 1580.75 1245.62L1387.89 1442.46C1377.56 1453.09 1363.31 1459 1348.55 1459C1333.72 1459 1319.55 1453.09 1309.14 1442.46C1298.37 1432.2 1292.31 1418.02 1292.31 1403.11C1292.31 1388.19 1298.37 1374.02 1309.14 1363.75L1466.57 1210.18L1309.14 1052.68V1052.61C1287.44 1030.9 1287.44 995.61 1309.14 973.901C1330.91 952.12 1366.12 952.12 1387.89 973.901L1580.75 1166.76Z"/>
</mask>
<path d="M2127.16 279.995H2094.09V225.652C2095.93 209.999 2091.06 194.346 2080.58 182.533C2070.18 170.719 2055.12 164 2039.4 164C2023.6 164 2008.62 170.719 1998.14 182.533C1987.66 194.346 1982.79 209.999 1984.63 225.652V279.995H1439.85V225.652C1441.7 209.999 1436.83 194.346 1426.35 182.533C1415.94 170.719 1400.88 164 1385.16 164C1369.37 164 1354.38 170.719 1343.9 182.533C1333.42 194.346 1328.55 209.999 1330.4 225.652V279.995H1297.33C1195.48 279.995 1112.81 362.396 1112.37 464.288V794.335C1112.37 824.756 1137.02 849.417 1167.43 849.417C1197.91 849.417 1222.56 824.756 1222.56 794.335V607.678H2201.92V1076.31V1076.24C2201.92 1097.14 2193.66 1117.22 2178.89 1131.99C2164.13 1146.75 2144.13 1155.02 2123.24 1155.02H1745.35C1729.7 1153.18 1713.98 1158.05 1702.17 1168.53C1690.36 1178.95 1683.64 1194.01 1683.64 1209.74C1683.64 1225.54 1690.36 1240.52 1702.17 1251.01C1713.98 1261.49 1729.7 1266.37 1745.35 1264.52H2123.24C2173.51 1265.56 2222.07 1246.14 2257.72 1210.62C2293.37 1175.11 2313 1126.6 2312.19 1076.24V464.29C2311.75 362.397 2229.01 279.995 2127.16 279.995ZM1222.56 497.367V464.288C1222.49 422.275 1255.41 387.647 1297.33 385.579H2127.16C2148.04 385.579 2168.05 393.849 2182.81 408.617C2197.57 423.385 2205.91 443.392 2205.91 464.288V497.367H1222.56ZM1376.08 1245.54L1183.96 1442.46C1173.33 1452.5 1159.23 1458.12 1144.62 1458.26C1130.23 1458.19 1116.43 1452.5 1106.02 1442.46C1084.39 1420.68 1084.39 1385.54 1106.02 1363.75L1205.22 1261.34H792.704C777.057 1263.19 761.335 1258.32 749.526 1247.83C737.79 1237.42 731 1222.36 731 1206.63C731 1190.83 737.79 1175.84 749.526 1165.36C761.335 1154.87 777.056 1150 792.704 1151.84H1205.22L1106.02 1052.61C1084.32 1030.9 1084.32 995.608 1106.02 973.9C1127.79 952.119 1163 952.119 1184.77 973.9L1376.9 1166.09V1166.02C1382.21 1171.04 1386.27 1177.24 1388.71 1184.18C1394.17 1197.55 1394.17 1212.54 1388.71 1225.9C1386.49 1233.58 1382.14 1240.45 1376.08 1245.62L1376.08 1245.54ZM1580.75 1166.76V1166.83C1602.38 1188.61 1602.38 1223.76 1580.75 1245.62L1387.89 1442.46C1377.56 1453.09 1363.31 1459 1348.55 1459C1333.72 1459 1319.55 1453.09 1309.14 1442.46C1298.37 1432.2 1292.31 1418.02 1292.31 1403.11C1292.31 1388.19 1298.37 1374.02 1309.14 1363.75L1466.57 1210.18L1309.14 1052.68V1052.61C1287.44 1030.9 1287.44 995.61 1309.14 973.901C1330.91 952.12 1366.12 952.12 1387.89 973.901L1580.75 1166.76Z" fill="black"/>
<path d="M2127.16 279.995H2094.09V225.652C2095.93 209.999 2091.06 194.346 2080.58 182.533C2070.18 170.719 2055.12 164 2039.4 164C2023.6 164 2008.62 170.719 1998.14 182.533C1987.66 194.346 1982.79 209.999 1984.63 225.652V279.995H1439.85V225.652C1441.7 209.999 1436.83 194.346 1426.35 182.533C1415.94 170.719 1400.88 164 1385.16 164C1369.37 164 1354.38 170.719 1343.9 182.533C1333.42 194.346 1328.55 209.999 1330.4 225.652V279.995H1297.33C1195.48 279.995 1112.81 362.396 1112.37 464.288V794.335C1112.37 824.756 1137.02 849.417 1167.43 849.417C1197.91 849.417 1222.56 824.756 1222.56 794.335V607.678H2201.92V1076.31V1076.24C2201.92 1097.14 2193.66 1117.22 2178.89 1131.99C2164.13 1146.75 2144.13 1155.02 2123.24 1155.02H1745.35C1729.7 1153.18 1713.98 1158.05 1702.17 1168.53C1690.36 1178.95 1683.64 1194.01 1683.64 1209.74C1683.64 1225.54 1690.36 1240.52 1702.17 1251.01C1713.98 1261.49 1729.7 1266.37 1745.35 1264.52H2123.24C2173.51 1265.56 2222.07 1246.14 2257.72 1210.62C2293.37 1175.11 2313 1126.6 2312.19 1076.24V464.29C2311.75 362.397 2229.01 279.995 2127.16 279.995ZM1222.56 497.367V464.288C1222.49 422.275 1255.41 387.647 1297.33 385.579H2127.16C2148.04 385.579 2168.05 393.849 2182.81 408.617C2197.57 423.385 2205.91 443.392 2205.91 464.288V497.367H1222.56ZM1376.08 1245.54L1183.96 1442.46C1173.33 1452.5 1159.23 1458.12 1144.62 1458.26C1130.23 1458.19 1116.43 1452.5 1106.02 1442.46C1084.39 1420.68 1084.39 1385.54 1106.02 1363.75L1205.22 1261.34H792.704C777.057 1263.19 761.335 1258.32 749.526 1247.83C737.79 1237.42 731 1222.36 731 1206.63C731 1190.83 737.79 1175.84 749.526 1165.36C761.335 1154.87 777.056 1150 792.704 1151.84H1205.22L1106.02 1052.61C1084.32 1030.9 1084.32 995.608 1106.02 973.9C1127.79 952.119 1163 952.119 1184.77 973.9L1376.9 1166.09V1166.02C1382.21 1171.04 1386.27 1177.24 1388.71 1184.18C1394.17 1197.55 1394.17 1212.54 1388.71 1225.9C1386.49 1233.58 1382.14 1240.45 1376.08 1245.62L1376.08 1245.54ZM1580.75 1166.76V1166.83C1602.38 1188.61 1602.38 1223.76 1580.75 1245.62L1387.89 1442.46C1377.56 1453.09 1363.31 1459 1348.55 1459C1333.72 1459 1319.55 1453.09 1309.14 1442.46C1298.37 1432.2 1292.31 1418.02 1292.31 1403.11C1292.31 1388.19 1298.37 1374.02 1309.14 1363.75L1466.57 1210.18L1309.14 1052.68V1052.61C1287.44 1030.9 1287.44 995.61 1309.14 973.901C1330.91 952.12 1366.12 952.12 1387.89 973.901L1580.75 1166.76Z" stroke="white" stroke-width="20" mask="url(#path-17-inside-1_100_3763)"/>
</g>
<defs>
<filter id="filter0_f_100_3763" x="2734.08" y="416" width="529.922" height="203.57" filterUnits="userSpaceOnUse" color-interpolation-filters="sRGB">
<feFlood flood-opacity="0" result="BackgroundImageFix"/>
<feBlend mode="normal" in="SourceGraphic" in2="BackgroundImageFix" result="shape"/>
<feGaussianBlur stdDeviation="40" result="effect1_foregroundBlur_100_3763"/>
</filter>
<filter id="filter1_f_100_3763" x="2045.97" y="460.559" width="671.516" height="194.586" filterUnits="userSpaceOnUse" color-interpolation-filters="sRGB">
<feFlood flood-opacity="0" result="BackgroundImageFix"/>
<feBlend mode="normal" in="SourceGraphic" in2="BackgroundImageFix" result="shape"/>
<feGaussianBlur stdDeviation="35" result="effect1_foregroundBlur_100_3763"/>
</filter>
<filter id="filter2_f_100_3763" x="483.117" y="899.203" width="513.047" height="102.254" filterUnits="userSpaceOnUse" color-interpolation-filters="sRGB">
<feFlood flood-opacity="0" result="BackgroundImageFix"/>
<feBlend mode="normal" in="SourceGraphic" in2="BackgroundImageFix" result="shape"/>
<feGaussianBlur stdDeviation="8" result="effect1_foregroundBlur_100_3763"/>
</filter>
<filter id="filter3_f_100_3763" x="1073.66" y="982.559" width="497.047" height="85.4766" filterUnits="userSpaceOnUse" color-interpolation-filters="sRGB">
<feFlood flood-opacity="0" result="BackgroundImageFix"/>
<feBlend mode="normal" in="SourceGraphic" in2="BackgroundImageFix" result="shape"/>
<feGaussianBlur stdDeviation="4" result="effect1_foregroundBlur_100_3763"/>
</filter>
<filter id="filter4_f_100_3763" x="1378.83" y="515.191" width="651.906" height="185.168" filterUnits="userSpaceOnUse" color-interpolation-filters="sRGB">
<feFlood flood-opacity="0" result="BackgroundImageFix"/>
<feBlend mode="normal" in="SourceGraphic" in2="BackgroundImageFix" result="shape"/>
<feGaussianBlur stdDeviation="32" result="effect1_foregroundBlur_100_3763"/>
</filter>
<filter id="filter5_f_100_3763" x="147.531" y="779.559" width="353.781" height="153.441" filterUnits="userSpaceOnUse" color-interpolation-filters="sRGB">
<feFlood flood-opacity="0" result="BackgroundImageFix"/>
<feBlend mode="normal" in="SourceGraphic" in2="BackgroundImageFix" result="shape"/>
<feGaussianBlur stdDeviation="16" result="effect1_foregroundBlur_100_3763"/>
</filter>
<filter id="filter6_f_100_3763" x="755.977" y="580.727" width="610.055" height="173.973" filterUnits="userSpaceOnUse" color-interpolation-filters="sRGB">
<feFlood flood-opacity="0" result="BackgroundImageFix"/>
<feBlend mode="normal" in="SourceGraphic" in2="BackgroundImageFix" result="shape"/>
<feGaussianBlur stdDeviation="27.5" result="effect1_foregroundBlur_100_3763"/>
</filter>
<filter id="filter7_f_100_3763" x="237.219" y="662.969" width="519.797" height="169.203" filterUnits="userSpaceOnUse" color-interpolation-filters="sRGB">
<feFlood flood-opacity="0" result="BackgroundImageFix"/>
<feBlend mode="normal" in="SourceGraphic" in2="BackgroundImageFix" result="shape"/>
<feGaussianBlur stdDeviation="22.5" result="effect1_foregroundBlur_100_3763"/>
</filter>
<filter id="filter8_f_100_3763" x="1619.3" y="1057.96" width="485.047" height="73.4766" filterUnits="userSpaceOnUse" color-interpolation-filters="sRGB">
<feFlood flood-opacity="0" result="BackgroundImageFix"/>
<feBlend mode="normal" in="SourceGraphic" in2="BackgroundImageFix" result="shape"/>
<feGaussianBlur stdDeviation="1" result="effect1_foregroundBlur_100_3763"/>
</filter>
<filter id="filter9_dddd_100_3763" x="698" y="158" width="1647.22" height="1417" filterUnits="userSpaceOnUse" color-interpolation-filters="sRGB">
<feFlood flood-opacity="0" result="BackgroundImageFix"/>
<feColorMatrix in="SourceAlpha" type="matrix" values="0 0 0 0 0 0 0 0 0 0 0 0 0 0 0 0 0 0 127 0" result="hardAlpha"/>
<feOffset dy="5"/>
<feGaussianBlur stdDeviation="5.5"/>
<feColorMatrix type="matrix" values="0 0 0 0 0 0 0 0 0 0 0 0 0 0 0 0 0 0 0.19 0"/>
<feBlend mode="normal" in2="BackgroundImageFix" result="effect1_dropShadow_100_3763"/>
<feColorMatrix in="SourceAlpha" type="matrix" values="0 0 0 0 0 0 0 0 0 0 0 0 0 0 0 0 0 0 127 0" result="hardAlpha"/>
<feOffset dy="21"/>
<feGaussianBlur stdDeviation="10.5"/>
<feColorMatrix type="matrix" values="0 0 0 0 0 0 0 0 0 0 0 0 0 0 0 0 0 0 0.17 0"/>
<feBlend mode="normal" in2="effect1_dropShadow_100_3763" result="effect2_dropShadow_100_3763"/>
<feColorMatrix in="SourceAlpha" type="matrix" values="0 0 0 0 0 0 0 0 0 0 0 0 0 0 0 0 0 0 127 0" result="hardAlpha"/>
<feOffset dy="47"/>
<feGaussianBlur stdDeviation="14"/>
<feColorMatrix type="matrix" values="0 0 0 0 0 0 0 0 0 0 0 0 0 0 0 0 0 0 0.1 0"/>
<feBlend mode="normal" in2="effect2_dropShadow_100_3763" result="effect3_dropShadow_100_3763"/>
<feColorMatrix in="SourceAlpha" type="matrix" values="0 0 0 0 0 0 0 0 0 0 0 0 0 0 0 0 0 0 127 0" result="hardAlpha"/>
<feOffset dy="83"/>
<feGaussianBlur stdDeviation="16.5"/>
<feColorMatrix type="matrix" values="0 0 0 0 0 0 0 0 0 0 0 0 0 0 0 0 0 0 0.03 0"/>
<feBlend mode="normal" in2="effect3_dropShadow_100_3763" result="effect4_dropShadow_100_3763"/>
<feBlend mode="normal" in="SourceGraphic" in2="effect4_dropShadow_100_3763" result="shape"/>
</filter>
</defs>
</svg>
