<svg width="800" height="800" viewBox="0 0 800 800" fill="none" xmlns="http://www.w3.org/2000/svg">
<rect y="-2" width="690.066" height="116.163" rx="14" transform="matrix(0.866025 0.5 -0.866025 0.5 145.404 197)" fill="white" stroke="#E2E8F0" stroke-width="4"/>
<path fill-rule="evenodd" clip-rule="evenodd" d="M129.387 237.729C138.695 232.355 151.573 231.076 158.149 234.873C164.725 238.67 162.51 246.104 153.202 251.479C143.893 256.853 131.016 258.132 124.44 254.335C117.864 250.538 120.079 243.103 129.387 237.729ZM163.205 231.954C154.656 227.018 137.916 228.68 125.815 235.667C113.714 242.653 110.834 252.318 119.384 257.254C123.015 259.35 128.123 260.256 133.726 260.07L130.329 271.476L129.804 273.237L135.905 272.631L136.43 270.87L139.828 259.464C145.658 258.515 151.634 256.508 156.774 253.541C168.875 246.555 171.754 236.89 163.205 231.954Z" fill="#C8CACD"/>
<g opacity="0.25" filter="url(#filter0_f_24_381)">
<path d="M535.845 438.729C537.758 437.624 540.86 437.624 542.773 438.729L713.045 537.036C714.959 538.14 714.959 539.931 713.045 541.036L646.15 579.658C644.237 580.762 641.135 580.762 639.222 579.658L468.95 481.351C467.036 480.246 467.036 478.455 468.95 477.351L535.845 438.729Z" fill="#F4F4F6"/>
<path d="M510.809 482.815C506.137 480.118 506.087 476.667 510.708 473.999C515.58 471.186 521.357 471.215 527.083 474.521L530.046 476.232L535.572 473.042L532.608 471.331C526.882 468.025 526.832 464.69 531.704 461.877C536.325 459.209 542.302 459.238 546.974 461.935C552.599 465.183 550.892 468.257 546.672 470.693L542.503 473.1L548.029 476.29L552.198 473.883C556.417 471.447 561.741 470.461 567.367 473.709C572.038 476.406 572.088 479.857 567.467 482.525C562.595 485.338 556.819 485.309 551.093 482.003L548.129 480.292L542.604 483.482L545.567 485.193C551.293 488.499 551.344 491.834 546.471 494.647C541.85 497.315 535.873 497.286 531.202 494.589C525.576 491.341 527.284 488.267 531.503 485.831L535.672 483.424L530.147 480.234L525.978 482.641C521.759 485.077 516.434 486.063 510.809 482.815ZM555.814 475.855L551.545 478.32L554.508 480.031C558.074 482.09 561.038 482.119 563.901 480.466C566.865 478.755 566.262 477.073 563.901 475.71C561.289 474.202 558.376 474.376 555.814 475.855ZM536.024 469.359L538.987 471.07L543.257 468.605C545.818 467.126 546.12 465.444 543.508 463.936C541.147 462.573 538.234 462.225 535.27 463.936C532.407 465.589 532.457 467.3 536.024 469.359ZM533.562 478.262L539.088 481.452L544.613 478.262L539.088 475.072L533.562 478.262ZM514.274 480.814C516.886 482.322 519.8 482.148 522.361 480.669L526.631 478.204L523.667 476.493C520.101 474.434 517.137 474.405 514.274 476.058C511.311 477.769 511.914 479.451 514.274 480.814ZM534.919 487.919C532.357 489.398 532.056 491.08 534.668 492.588C537.028 493.951 539.942 494.299 542.905 492.588C545.768 490.935 545.718 489.224 542.152 487.165L539.188 485.454L534.919 487.919Z" fill="#020817"/>
<path d="M583.098 521.245L593.094 515.474L583.098 509.703L587.016 507.441L597.012 513.212L607.007 507.441L610.925 509.703L600.93 515.474L610.925 521.245L607.007 523.507L597.012 517.736L587.016 523.507L583.098 521.245Z" fill="#020817"/>
<path d="M623.865 548.088L659.528 527.498L662.943 529.47L643.856 540.49L680.423 539.562L684.743 542.056L655.107 542.81L650.085 563.226L645.966 560.848L650.336 542.955L639.134 543.216L627.28 550.06L623.865 548.088Z" fill="#020817"/>
</g>
<g filter="url(#filter1_dddd_24_381)">
<rect y="-2" width="208.614" height="89.2437" rx="6" transform="matrix(0.866025 0.5 -0.866025 0.5 537.577 365.729)" fill="#F4F4F6" stroke="#E2E8F0" stroke-width="4"/>
<path d="M510.809 412.816C506.137 410.119 506.087 406.668 510.708 404C515.58 401.187 521.357 401.216 527.083 404.522L530.046 406.233L535.572 403.043L532.608 401.332C526.882 398.026 526.832 394.691 531.704 391.878C536.325 389.21 542.302 389.239 546.974 391.936C552.599 395.184 550.892 398.258 546.672 400.694L542.503 403.101L548.029 406.291L552.198 403.884C556.417 401.448 561.741 400.462 567.367 403.71C572.038 406.407 572.089 409.858 567.467 412.526C562.595 415.339 556.819 415.31 551.093 412.004L548.129 410.293L542.604 413.483L545.567 415.194C551.294 418.5 551.344 421.835 546.471 424.648C541.85 427.316 535.873 427.287 531.202 424.59C525.576 421.342 527.284 418.268 531.503 415.832L535.672 413.425L530.147 410.235L525.978 412.642C521.759 415.078 516.434 416.064 510.809 412.816ZM555.814 405.856L551.545 408.321L554.508 410.032C558.074 412.091 561.038 412.12 563.901 410.467C566.865 408.756 566.262 407.074 563.901 405.711C561.289 404.203 558.376 404.377 555.814 405.856ZM536.024 399.36L538.987 401.071L543.257 398.606C545.819 397.127 546.12 395.445 543.508 393.937C541.147 392.574 538.234 392.226 535.27 393.937C532.407 395.59 532.457 397.301 536.024 399.36ZM533.563 408.263L539.088 411.453L544.613 408.263L539.088 405.073L533.563 408.263ZM514.274 410.815C516.886 412.323 519.8 412.149 522.361 410.67L526.631 408.205L523.667 406.494C520.101 404.435 517.137 404.406 514.274 406.059C511.311 407.77 511.914 409.452 514.274 410.815ZM534.919 417.92C532.357 419.399 532.056 421.081 534.668 422.589C537.028 423.952 539.942 424.3 542.905 422.589C545.768 420.936 545.718 419.225 542.152 417.166L539.188 415.455L534.919 417.92Z" fill="#020817"/>
<path d="M583.099 451.246L593.094 445.475L583.099 439.704L587.017 437.442L597.012 443.213L607.008 437.442L610.926 439.704L600.93 445.475L610.926 451.246L607.008 453.508L597.012 447.737L587.017 453.508L583.099 451.246Z" fill="#020817"/>
<path d="M622.827 477.49L658.49 456.9L663.914 460.032L646.887 469.863L678.933 468.703L685.513 472.502L656.28 473.604L650.754 493.614L644.375 489.931L648.846 473.72L639.704 474.01L628.252 480.622L622.827 477.49Z" fill="#020817"/>
</g>
<path d="M198.941 315.79C191.13 311.28 190.844 305.67 197.131 301.38L201.704 303.69C197.322 306.99 197.608 310.4 203.038 313.535C207.753 316.258 212.373 316.78 215.851 314.773C218.994 312.958 219.328 310.95 213.231 305.12C207.372 299.482 206.944 296.54 211.992 293.625C217.661 290.352 225.901 290.545 232.855 294.56C240.285 298.85 240.095 304.02 234.665 308.035L230.092 305.725C233.617 303.03 233.808 299.73 228.759 296.815C224.567 294.395 219.709 294.12 216.47 295.99C213.278 297.832 213.85 299.482 219.232 304.625C225.615 310.73 225.282 314.278 220.423 317.083C214.517 320.493 205.848 319.778 198.941 315.79ZM226.207 331.312C219.063 327.187 219.825 321.632 227.827 317.012C235.829 312.392 245.451 311.952 252.405 315.967C258.978 319.762 258.787 325.152 250.309 330.047L249.118 330.735L230.78 320.147C225.636 323.447 225.636 326.582 230.018 329.112C233.305 331.01 237.115 331.285 240.544 330.295L244.498 332.962C238.639 334.805 231.542 334.392 226.207 331.312ZM248.261 326.17C252.738 323.145 252.309 320.312 248.594 318.167C244.688 315.912 239.639 315.802 234.305 318.112L248.261 326.17ZM248.755 344.33C243.516 341.305 242.754 337.95 247.088 335.448C251.375 332.973 256.186 333 262.759 335.585L273.381 339.793C277.62 337.345 277.715 334.98 273.714 332.67C270.189 330.635 266.617 330.443 262.949 331.68L259.044 329.04C264.759 326.84 271.809 327.17 277.525 330.47C284.003 334.21 283.621 338.5 277.239 342.185L266.808 348.208C265.664 348.868 265.617 349.335 266.569 349.885L267.57 350.463L264.045 352.498C263.712 352.36 263.045 352.03 262.426 351.673C259.377 349.913 259.187 348.428 261.663 346.613C257.805 347.41 252.471 346.475 248.755 344.33ZM252.661 342.515C257.71 345.43 263.902 345.265 268.094 342.845L269.904 341.8L260.187 337.95C256.138 336.328 253.757 336.438 251.661 337.648C249.279 339.023 249.708 340.81 252.661 342.515ZM267.876 354.709L293.121 340.134L296.645 342.169L292.12 344.947C296.217 343.627 299.694 343.929 302.79 345.717L305.267 347.147L301.456 349.347L299.027 347.944C295.216 345.744 291.263 345.827 287.119 348.219L271.877 357.019L267.876 354.709ZM292.623 369.657C285.574 365.587 286.241 359.977 294.243 355.357C302.245 350.737 311.962 350.352 319.011 354.422C324.822 357.777 325.727 361.93 320.964 365.67L316.487 363.415C319.249 361.16 318.63 358.602 315.201 356.622C310.533 353.927 304.293 354.395 298.434 357.777C292.576 361.16 291.766 364.762 296.434 367.457C299.863 369.437 304.293 369.795 308.675 367.925L312.581 370.51C306.103 373.26 298.434 373.012 292.623 369.657ZM307.114 377.364L340.932 357.839L344.934 360.149L332.406 367.381C336.789 366.336 341.075 367.161 344.552 369.169C349.982 372.304 349.03 376.319 343.409 379.564L327.167 388.941L323.166 386.631L338.265 377.914C343.124 375.109 343.695 372.744 340.17 370.709C336.074 368.344 330.835 368.289 326.167 370.984L311.115 379.674L307.114 377.364Z" fill="#868A92"/>
<defs>
<filter id="filter0_f_24_381" x="457.515" y="427.9" width="266.966" height="162.586" filterUnits="userSpaceOnUse" color-interpolation-filters="sRGB">
<feFlood flood-opacity="0" result="BackgroundImageFix"/>
<feBlend mode="normal" in="SourceGraphic" in2="BackgroundImageFix" result="shape"/>
<feGaussianBlur stdDeviation="5" result="effect1_foregroundBlur_24_381"/>
</filter>
<filter id="filter1_dddd_24_381" x="415.136" y="355" width="335.543" height="287.315" filterUnits="userSpaceOnUse" color-interpolation-filters="sRGB">
<feFlood flood-opacity="0" result="BackgroundImageFix"/>
<feColorMatrix in="SourceAlpha" type="matrix" values="0 0 0 0 0 0 0 0 0 0 0 0 0 0 0 0 0 0 127 0" result="hardAlpha"/>
<feOffset dy="6"/>
<feGaussianBlur stdDeviation="6.5"/>
<feColorMatrix type="matrix" values="0 0 0 0 0 0 0 0 0 0 0 0 0 0 0 0 0 0 0.1 0"/>
<feBlend mode="normal" in2="BackgroundImageFix" result="effect1_dropShadow_24_381"/>
<feColorMatrix in="SourceAlpha" type="matrix" values="0 0 0 0 0 0 0 0 0 0 0 0 0 0 0 0 0 0 127 0" result="hardAlpha"/>
<feOffset dx="-2" dy="23"/>
<feGaussianBlur stdDeviation="11.5"/>
<feColorMatrix type="matrix" values="0 0 0 0 0 0 0 0 0 0 0 0 0 0 0 0 0 0 0.09 0"/>
<feBlend mode="normal" in2="effect1_dropShadow_24_381" result="effect2_dropShadow_24_381"/>
<feColorMatrix in="SourceAlpha" type="matrix" values="0 0 0 0 0 0 0 0 0 0 0 0 0 0 0 0 0 0 127 0" result="hardAlpha"/>
<feOffset dx="-3" dy="52"/>
<feGaussianBlur stdDeviation="15.5"/>
<feColorMatrix type="matrix" values="0 0 0 0 0 0 0 0 0 0 0 0 0 0 0 0 0 0 0.05 0"/>
<feBlend mode="normal" in2="effect2_dropShadow_24_381" result="effect3_dropShadow_24_381"/>
<feColorMatrix in="SourceAlpha" type="matrix" values="0 0 0 0 0 0 0 0 0 0 0 0 0 0 0 0 0 0 127 0" result="hardAlpha"/>
<feOffset dx="-6" dy="92"/>
<feGaussianBlur stdDeviation="18.5"/>
<feColorMatrix type="matrix" values="0 0 0 0 0 0 0 0 0 0 0 0 0 0 0 0 0 0 0.01 0"/>
<feBlend mode="normal" in2="effect3_dropShadow_24_381" result="effect4_dropShadow_24_381"/>
<feBlend mode="normal" in="SourceGraphic" in2="effect4_dropShadow_24_381" result="shape"/>
</filter>
</defs>
</svg>
