<svg width="800" height="800" viewBox="0 0 800 800" fill="none" xmlns="http://www.w3.org/2000/svg">
<rect y="-2" width="690.066" height="116.163" rx="14" transform="matrix(0.866025 0.5 -0.866025 0.5 145.404 197)" fill="#020817" stroke="#1E293B" stroke-width="4"/>
<path fill-rule="evenodd" clip-rule="evenodd" d="M129.387 237.729C138.695 232.355 151.573 231.076 158.149 234.873C164.725 238.67 162.51 246.104 153.202 251.479C143.893 256.853 131.016 258.132 124.44 254.335C117.864 250.538 120.079 243.103 129.387 237.729ZM163.205 231.954C154.656 227.018 137.916 228.68 125.815 235.667C113.714 242.653 110.834 252.318 119.384 257.254C123.015 259.35 128.123 260.256 133.726 260.07L130.329 271.476L129.804 273.237L135.905 272.631L136.43 270.87L139.828 259.464C145.658 258.515 151.634 256.508 156.774 253.541C168.875 246.555 171.754 236.89 163.205 231.954Z" fill="#C8CACD"/>
<path d="M198.941 315.79C191.13 311.28 190.844 305.67 197.131 301.38L201.704 303.69C197.322 306.99 197.608 310.4 203.038 313.535C207.753 316.258 212.373 316.78 215.851 314.773C218.994 312.958 219.328 310.95 213.231 305.12C207.372 299.482 206.944 296.54 211.992 293.625C217.661 290.352 225.901 290.545 232.855 294.56C240.285 298.85 240.095 304.02 234.665 308.035L230.092 305.725C233.617 303.03 233.808 299.73 228.759 296.815C224.567 294.395 219.709 294.12 216.47 295.99C213.278 297.832 213.85 299.482 219.232 304.625C225.615 310.73 225.282 314.278 220.423 317.083C214.517 320.493 205.848 319.778 198.941 315.79ZM226.207 331.312C219.063 327.187 219.825 321.632 227.827 317.012C235.829 312.392 245.451 311.952 252.405 315.967C258.978 319.762 258.787 325.152 250.309 330.047L249.118 330.735L230.78 320.147C225.636 323.447 225.636 326.582 230.018 329.112C233.305 331.01 237.115 331.285 240.544 330.295L244.498 332.962C238.639 334.805 231.542 334.392 226.207 331.312ZM248.261 326.17C252.738 323.145 252.309 320.312 248.594 318.167C244.688 315.912 239.639 315.802 234.305 318.112L248.261 326.17ZM248.755 344.33C243.516 341.305 242.754 337.95 247.088 335.448C251.375 332.973 256.186 333 262.759 335.585L273.381 339.793C277.62 337.345 277.715 334.98 273.714 332.67C270.189 330.635 266.617 330.443 262.949 331.68L259.044 329.04C264.759 326.84 271.809 327.17 277.525 330.47C284.003 334.21 283.621 338.5 277.239 342.185L266.808 348.208C265.664 348.868 265.617 349.335 266.569 349.885L267.57 350.463L264.045 352.498C263.712 352.36 263.045 352.03 262.426 351.673C259.377 349.913 259.187 348.428 261.663 346.613C257.805 347.41 252.471 346.475 248.755 344.33ZM252.661 342.515C257.71 345.43 263.902 345.265 268.094 342.845L269.904 341.8L260.187 337.95C256.138 336.328 253.757 336.438 251.661 337.648C249.279 339.023 249.708 340.81 252.661 342.515ZM267.876 354.709L293.121 340.134L296.645 342.169L292.12 344.947C296.217 343.627 299.694 343.929 302.79 345.717L305.267 347.147L301.456 349.347L299.027 347.944C295.216 345.744 291.263 345.827 287.119 348.219L271.877 357.019L267.876 354.709ZM292.623 369.657C285.574 365.587 286.241 359.977 294.243 355.357C302.245 350.737 311.962 350.352 319.011 354.422C324.822 357.777 325.727 361.93 320.964 365.67L316.487 363.415C319.249 361.16 318.63 358.602 315.201 356.622C310.533 353.927 304.293 354.395 298.434 357.777C292.576 361.16 291.766 364.762 296.434 367.457C299.863 369.437 304.293 369.795 308.675 367.925L312.581 370.51C306.103 373.26 298.434 373.012 292.623 369.657ZM307.114 377.364L340.932 357.839L344.934 360.149L332.406 367.381C336.789 366.336 341.075 367.161 344.552 369.169C349.982 372.304 349.03 376.319 343.409 379.564L327.167 388.941L323.166 386.631L338.265 377.914C343.124 375.109 343.695 372.744 340.17 370.709C336.074 368.344 330.835 368.289 326.167 370.984L311.115 379.674L307.114 377.364Z" fill="#C8CACD"/>
<g opacity="0.25" filter="url(#filter0_f_24_355)">
<path d="M532.709 440.593C534.622 439.489 537.724 439.489 539.637 440.593L712.581 540.442C714.494 541.547 714.494 543.338 712.581 544.442L645.686 583.064C643.772 584.169 640.671 584.169 638.757 583.064L465.814 483.215C463.901 482.11 463.901 480.32 465.814 479.215L532.709 440.593Z" fill="#020817"/>
<path d="M507.673 484.679C503.001 481.982 502.951 478.531 507.572 475.863C512.445 473.05 518.221 473.079 523.947 476.385L526.911 478.096L532.436 474.906L529.472 473.195C523.746 469.889 523.696 466.554 528.568 463.741C533.189 461.073 539.167 461.102 543.838 463.799C549.464 467.047 547.756 470.121 543.537 472.557L539.368 474.964L544.893 478.154L549.062 475.747C553.281 473.311 558.605 472.325 564.231 475.573C568.903 478.27 568.953 481.721 564.332 484.389C559.459 487.202 553.683 487.173 547.957 483.867L544.993 482.156L539.468 485.346L542.432 487.057C548.158 490.363 548.208 493.698 543.336 496.511C538.715 499.179 532.737 499.15 528.066 496.453C522.44 493.205 524.148 490.131 528.367 487.695L532.536 485.288L527.011 482.098L522.842 484.505C518.623 486.941 513.298 487.927 507.673 484.679ZM552.678 477.719L548.409 480.184L551.372 481.895C554.939 483.954 557.902 483.983 560.765 482.33C563.729 480.619 563.126 478.937 560.765 477.574C558.153 476.066 555.24 476.24 552.678 477.719ZM532.888 471.223L535.852 472.934L540.121 470.469C542.683 468.99 542.984 467.308 540.372 465.8C538.011 464.437 535.098 464.089 532.135 465.8C529.271 467.453 529.322 469.164 532.888 471.223ZM530.427 480.126L535.952 483.316L541.477 480.126L535.952 476.936L530.427 480.126ZM511.139 482.678C513.751 484.186 516.664 484.012 519.226 482.533L523.495 480.068L520.532 478.357C516.965 476.298 514.002 476.269 511.139 477.922C508.175 479.633 508.778 481.315 511.139 482.678ZM531.783 489.783C529.221 491.262 528.92 492.944 531.532 494.452C533.893 495.815 536.806 496.163 539.769 494.452C542.633 492.799 542.582 491.088 539.016 489.029L536.052 487.318L531.783 489.783Z" fill="#F0F2F5"/>
<path d="M579.962 523.11L589.958 517.339L579.962 511.568L583.88 509.306L593.876 515.077L603.872 509.306L607.79 511.568L597.794 517.339L607.79 523.11L603.872 525.372L593.876 519.601L583.88 525.372L579.962 523.11Z" fill="#F0F2F5"/>
<path d="M620.729 549.952L656.392 529.362L659.808 531.334L640.72 542.354L677.287 541.426L681.607 543.92L651.972 544.674L646.949 565.09L642.83 562.712L647.2 544.819L635.999 545.08L624.145 551.924L620.729 549.952Z" fill="#F0F2F5"/>
</g>
<g filter="url(#filter1_dddd_24_355)">
<rect y="-2" width="211.698" height="89.2437" rx="6" transform="matrix(0.866025 0.5 -0.866025 0.5 534.441 358.593)" fill="#020817" stroke="#1E293B" stroke-width="4"/>
<path d="M507.673 405.679C503.001 402.982 502.951 399.531 507.572 396.863C512.445 394.05 518.221 394.079 523.947 397.385L526.911 399.096L532.436 395.906L529.472 394.195C523.746 390.889 523.696 387.554 528.568 384.741C533.189 382.073 539.167 382.102 543.838 384.799C549.464 388.047 547.756 391.121 543.537 393.557L539.368 395.964L544.893 399.154L549.062 396.747C553.281 394.311 558.606 393.325 564.231 396.573C568.903 399.27 568.953 402.721 564.332 405.389C559.459 408.202 553.683 408.173 547.957 404.867L544.993 403.156L539.468 406.346L542.432 408.057C548.158 411.363 548.208 414.698 543.336 417.511C538.715 420.179 532.737 420.15 528.066 417.453C522.44 414.205 524.148 411.131 528.367 408.695L532.536 406.288L527.011 403.098L522.842 405.505C518.623 407.941 513.299 408.927 507.673 405.679ZM552.678 398.719L548.409 401.184L551.372 402.895C554.939 404.954 557.902 404.983 560.765 403.33C563.729 401.619 563.126 399.937 560.765 398.574C558.153 397.066 555.24 397.24 552.678 398.719ZM532.888 392.223L535.852 393.934L540.121 391.469C542.683 389.99 542.984 388.308 540.372 386.8C538.011 385.437 535.098 385.089 532.135 386.8C529.271 388.453 529.322 390.164 532.888 392.223ZM530.427 401.126L535.952 404.316L541.477 401.126L535.952 397.936L530.427 401.126ZM511.139 403.678C513.751 405.186 516.664 405.012 519.226 403.533L523.495 401.068L520.532 399.357C516.965 397.298 514.002 397.269 511.139 398.922C508.175 400.633 508.778 402.315 511.139 403.678ZM531.783 410.783C529.221 412.262 528.92 413.944 531.532 415.452C533.893 416.815 536.806 417.163 539.769 415.452C542.633 413.799 542.582 412.088 539.016 410.029L536.052 408.318L531.783 410.783Z" fill="#F0F2F5"/>
<path d="M579.963 444.11L589.959 438.339L579.963 432.568L583.881 430.306L593.877 436.077L603.872 430.306L607.79 432.568L597.794 438.339L607.79 444.11L603.872 446.372L593.877 440.601L583.881 446.372L579.963 444.11Z" fill="#F0F2F5"/>
<path d="M619.691 470.353L655.354 449.763L660.779 452.895L643.751 462.726L675.797 461.566L682.377 465.365L653.144 466.467L647.619 486.477L641.239 482.794L645.71 466.583L636.568 466.873L625.116 473.485L619.691 470.353Z" fill="#F0F2F5"/>
</g>
<defs>
<filter id="filter0_f_24_355" x="454.379" y="429.765" width="269.637" height="164.128" filterUnits="userSpaceOnUse" color-interpolation-filters="sRGB">
<feFlood flood-opacity="0" result="BackgroundImageFix"/>
<feBlend mode="normal" in="SourceGraphic" in2="BackgroundImageFix" result="shape"/>
<feGaussianBlur stdDeviation="5" result="effect1_foregroundBlur_24_355"/>
</filter>
<filter id="filter1_dddd_24_355" x="384" y="346.863" width="351.914" height="296.857" filterUnits="userSpaceOnUse" color-interpolation-filters="sRGB">
<feFlood flood-opacity="0" result="BackgroundImageFix"/>
<feColorMatrix in="SourceAlpha" type="matrix" values="0 0 0 0 0 0 0 0 0 0 0 0 0 0 0 0 0 0 127 0" result="hardAlpha"/>
<feOffset dx="-2" dy="6"/>
<feGaussianBlur stdDeviation="7"/>
<feColorMatrix type="matrix" values="0 0 0 0 0.760784 0 0 0 0 0.741176 0 0 0 0 0.741176 0 0 0 0.21 0"/>
<feBlend mode="normal" in2="BackgroundImageFix" result="effect1_dropShadow_24_355"/>
<feColorMatrix in="SourceAlpha" type="matrix" values="0 0 0 0 0 0 0 0 0 0 0 0 0 0 0 0 0 0 127 0" result="hardAlpha"/>
<feOffset dx="-8" dy="24"/>
<feGaussianBlur stdDeviation="12.5"/>
<feColorMatrix type="matrix" values="0 0 0 0 0.760784 0 0 0 0 0.741176 0 0 0 0 0.741176 0 0 0 0.18 0"/>
<feBlend mode="normal" in2="effect1_dropShadow_24_355" result="effect2_dropShadow_24_355"/>
<feColorMatrix in="SourceAlpha" type="matrix" values="0 0 0 0 0 0 0 0 0 0 0 0 0 0 0 0 0 0 127 0" result="hardAlpha"/>
<feOffset dx="-18" dy="54"/>
<feGaussianBlur stdDeviation="17"/>
<feColorMatrix type="matrix" values="0 0 0 0 0.760784 0 0 0 0 0.741176 0 0 0 0 0.741176 0 0 0 0.11 0"/>
<feBlend mode="normal" in2="effect2_dropShadow_24_355" result="effect3_dropShadow_24_355"/>
<feColorMatrix in="SourceAlpha" type="matrix" values="0 0 0 0 0 0 0 0 0 0 0 0 0 0 0 0 0 0 127 0" result="hardAlpha"/>
<feOffset dx="-31" dy="96"/>
<feGaussianBlur stdDeviation="20"/>
<feColorMatrix type="matrix" values="0 0 0 0 0.760784 0 0 0 0 0.741176 0 0 0 0 0.741176 0 0 0 0.03 0"/>
<feBlend mode="normal" in2="effect3_dropShadow_24_355" result="effect4_dropShadow_24_355"/>
<feBlend mode="normal" in="SourceGraphic" in2="effect4_dropShadow_24_355" result="shape"/>
</filter>
</defs>
</svg>
