<svg width="300" height="160" viewBox="0 0 300 160" fill="none" xmlns="http://www.w3.org/2000/svg">
<g opacity="0.5">
<rect x="3.5" y="1.5" width="154.914" height="48.0345" rx="11.5" fill="white" fill-opacity="0.98" stroke="#E2E8F0"/>
<path d="M159 26C166 26.1651 180 30.756 180 47.7982C180 69.1009 173.5 80 208 80" stroke="#DDE4F5" stroke-width="2"/>
<path d="M159 134.5C166 134.333 180 129.7 180 112.5C180 91 174 80 208 80" stroke="#DDE4F5" stroke-width="2"/>
<path d="M207 80H158" stroke="#DDE4F5" stroke-width="2"/>
<rect x="10.668" y="30.4975" width="31.0296" height="8.81088" rx="4.40544" fill="#E2E8F0"/>
<rect x="10.168" y="29.9975" width="32.0296" height="9.81088" rx="4.90544" stroke="#CFD9F1" stroke-opacity="0.7"/>
<rect x="46.6719" y="30.4975" width="53.2484" height="8.81088" rx="4.40544" fill="#E2E8F0"/>
<rect x="46.1719" y="29.9975" width="54.2484" height="9.81088" rx="4.90544" stroke="#CFD9F1" stroke-opacity="0.7"/>
<rect x="10.6484" y="11.3972" width="122.345" height="6.91213" rx="3.45606" fill="#E2E8F0"/>
</g>
<g opacity="0.5">
<rect x="3.5" y="55.9828" width="154.914" height="48.0345" rx="11.5" fill="white" fill-opacity="0.98" stroke="#E2E8F0"/>
<rect x="10.668" y="84.9802" width="31.0296" height="8.81088" rx="4.40544" fill="#E2E8F0"/>
<rect x="10.168" y="84.4802" width="32.0296" height="9.81088" rx="4.90544" stroke="#CFD9F1" stroke-opacity="0.7"/>
<rect x="46.6719" y="84.9802" width="53.2484" height="8.81088" rx="4.40544" fill="#E2E8F0"/>
<rect x="46.1719" y="84.4802" width="54.2484" height="9.81088" rx="4.90544" stroke="#CFD9F1" stroke-opacity="0.7"/>
<rect x="10.6484" y="65.88" width="122.345" height="6.91213" rx="3.45606" fill="#E2E8F0"/>
</g>
<g opacity="0.5">
<rect x="3.5" y="110.466" width="154.914" height="48.0345" rx="11.5" fill="white" fill-opacity="0.98" stroke="#E2E8F0"/>
<rect x="10.668" y="139.463" width="31.0296" height="8.81088" rx="4.40544" fill="#E2E8F0"/>
<rect x="10.168" y="138.963" width="32.0296" height="9.81088" rx="4.90544" stroke="#CFD9F1" stroke-opacity="0.7"/>
<rect x="46.6719" y="139.463" width="53.2484" height="8.81088" rx="4.40544" fill="#E2E8F0"/>
<rect x="46.1719" y="138.963" width="54.2484" height="9.81088" rx="4.90544" stroke="#CFD9F1" stroke-opacity="0.7"/>
<rect x="10.6484" y="120.363" width="122.345" height="6.91213" rx="3.45606" fill="#E2E8F0"/>
</g>
<path d="M228 100C239.046 100 248 91.0457 248 80C248 68.9543 239.046 60 228 60C216.954 60 208 68.9543 208 80C208 91.0457 216.954 100 228 100Z" fill="#FEFEFE" stroke="#DDE4F5" stroke-width="2"/>
<path d="M224.327 71.0278V68H226.597V71.0278H224.327ZM217.468 71.0738L219.739 73.3446L221.345 71.7389L219.074 69.468L217.468 71.0738ZM222.428 74.428L223.259 76.7146L227.801 89.2044L228.818 92L229.923 89.238L231.554 85.1597L236.392 89.9977L237.998 88.392L233.16 83.5538L237.238 81.9225L240 80.8178L237.204 79.8012L224.715 75.2595L222.428 74.428ZM233.633 80.9188L231.32 81.844C230.647 82.1133 230.113 82.6467 229.844 83.3199L228.919 85.6328L226.225 78.2251L233.633 80.9188ZM216 78.5974H219.028V76.3266H216V78.5974Z" fill="black"/>
<path d="M224.327 71.0278V68H226.597V71.0278H224.327ZM217.468 71.0738L219.739 73.3446L221.345 71.7389L219.074 69.468L217.468 71.0738ZM222.428 74.428L223.259 76.7146L227.801 89.2044L228.818 92L229.923 89.238L231.554 85.1597L236.392 89.9977L237.998 88.392L233.16 83.5538L237.238 81.9225L240 80.8178L237.204 79.8012L224.715 75.2595L222.428 74.428ZM233.633 80.9188L231.32 81.844C230.647 82.1133 230.113 82.6467 229.844 83.3199L228.919 85.6328L226.225 78.2251L233.633 80.9188ZM216 78.5974H219.028V76.3266H216V78.5974Z" stroke="black"/>
</svg>
